<mxfile host="65bd71144e">
    <diagram name="PÃ¡gina-1" id="5rV0twhza5GSK3XuXcBs">
        <mxGraphModel dx="2868" dy="3228" grid="1" gridSize="10" guides="1" tooltips="1" connect="1" arrows="1" fold="1" page="1" pageScale="1" pageWidth="1169" pageHeight="827" math="0" shadow="0">
            <root>
                <mxCell id="0"/>
                <mxCell id="1" parent="0"/>
                <mxCell id="364" value="" style="rounded=0;whiteSpace=wrap;html=1;fontFamily=Verdana;fontSize=18;fillColor=none;dashed=1;" vertex="1" parent="1">
                    <mxGeometry x="420" y="143" width="110" height="134" as="geometry"/>
                </mxCell>
                <mxCell id="110" value="" style="group" vertex="1" connectable="0" parent="1">
                    <mxGeometry x="226" y="-690" width="250" height="120" as="geometry"/>
                </mxCell>
                <mxCell id="111" value="" style="html=1;whiteSpace=wrap;shape=isoCube2;backgroundOutline=1;isoAngle=15;" vertex="1" parent="110">
                    <mxGeometry width="250" height="120" as="geometry"/>
                </mxCell>
                <mxCell id="112" value="" style="endArrow=none;html=1;entryX=0.527;entryY=0.027;entryDx=0;entryDy=0;entryPerimeter=0;exitX=0.03;exitY=0.489;exitDx=0;exitDy=0;exitPerimeter=0;" edge="1" parent="110">
                    <mxGeometry width="50" height="50" relative="1" as="geometry">
                        <mxPoint x="31" y="74.05999999999995" as="sourcePoint"/>
                        <mxPoint x="155.25" y="14" as="targetPoint"/>
                    </mxGeometry>
                </mxCell>
                <mxCell id="113" value="" style="endArrow=none;html=1;entryX=0.527;entryY=0.027;entryDx=0;entryDy=0;entryPerimeter=0;exitX=0.03;exitY=0.489;exitDx=0;exitDy=0;exitPerimeter=0;" edge="1" parent="110">
                    <mxGeometry width="50" height="50" relative="1" as="geometry">
                        <mxPoint x="93" y="105.05999999999995" as="sourcePoint"/>
                        <mxPoint x="217.25" y="45" as="targetPoint"/>
                    </mxGeometry>
                </mxCell>
                <mxCell id="114" value="" style="endArrow=none;html=1;entryX=0.527;entryY=0.027;entryDx=0;entryDy=0;entryPerimeter=0;exitX=0.03;exitY=0.489;exitDx=0;exitDy=0;exitPerimeter=0;" edge="1" parent="110">
                    <mxGeometry width="50" height="50" relative="1" as="geometry">
                        <mxPoint x="62.88000000000011" y="90.05999999999995" as="sourcePoint"/>
                        <mxPoint x="187.1300000000001" y="30" as="targetPoint"/>
                    </mxGeometry>
                </mxCell>
                <mxCell id="115" value="" style="endArrow=none;html=1;strokeColor=default;entryX=0.52;entryY=0.902;entryDx=0;entryDy=0;entryPerimeter=0;" edge="1" parent="110">
                    <mxGeometry width="50" height="50" relative="1" as="geometry">
                        <mxPoint x="33" y="44" as="sourcePoint"/>
                        <mxPoint x="158" y="104.25999999999999" as="targetPoint"/>
                    </mxGeometry>
                </mxCell>
                <mxCell id="116" value="" style="endArrow=none;html=1;strokeColor=default;entryX=0.52;entryY=0.902;entryDx=0;entryDy=0;entryPerimeter=0;exitX=0.269;exitY=0.238;exitDx=0;exitDy=0;exitPerimeter=0;" edge="1" parent="110" source="111">
                    <mxGeometry width="50" height="50" relative="1" as="geometry">
                        <mxPoint x="63" y="29" as="sourcePoint"/>
                        <mxPoint x="188" y="89.25999999999999" as="targetPoint"/>
                    </mxGeometry>
                </mxCell>
                <mxCell id="117" value="" style="endArrow=none;html=1;strokeColor=default;entryX=0.52;entryY=0.902;entryDx=0;entryDy=0;entryPerimeter=0;exitX=0.256;exitY=0.226;exitDx=0;exitDy=0;exitPerimeter=0;" edge="1" parent="110">
                    <mxGeometry width="50" height="50" relative="1" as="geometry">
                        <mxPoint x="96" y="14" as="sourcePoint"/>
                        <mxPoint x="220" y="73.88000000000011" as="targetPoint"/>
                    </mxGeometry>
                </mxCell>
                <mxCell id="215" value="" style="group" vertex="1" connectable="0" parent="110">
                    <mxGeometry y="-10" width="250" height="120" as="geometry"/>
                </mxCell>
                <mxCell id="216" value="" style="html=1;whiteSpace=wrap;shape=isoCube2;backgroundOutline=1;isoAngle=15;" vertex="1" parent="215">
                    <mxGeometry width="250" height="120" as="geometry"/>
                </mxCell>
                <mxCell id="217" value="" style="endArrow=none;html=1;entryX=0.527;entryY=0.027;entryDx=0;entryDy=0;entryPerimeter=0;exitX=0.03;exitY=0.489;exitDx=0;exitDy=0;exitPerimeter=0;" edge="1" parent="215">
                    <mxGeometry width="50" height="50" relative="1" as="geometry">
                        <mxPoint x="31" y="74.05999999999995" as="sourcePoint"/>
                        <mxPoint x="155.25" y="14" as="targetPoint"/>
                    </mxGeometry>
                </mxCell>
                <mxCell id="218" value="" style="endArrow=none;html=1;entryX=0.527;entryY=0.027;entryDx=0;entryDy=0;entryPerimeter=0;exitX=0.03;exitY=0.489;exitDx=0;exitDy=0;exitPerimeter=0;" edge="1" parent="215">
                    <mxGeometry width="50" height="50" relative="1" as="geometry">
                        <mxPoint x="93" y="105.05999999999995" as="sourcePoint"/>
                        <mxPoint x="217.25" y="45" as="targetPoint"/>
                    </mxGeometry>
                </mxCell>
                <mxCell id="219" value="" style="endArrow=none;html=1;entryX=0.527;entryY=0.027;entryDx=0;entryDy=0;entryPerimeter=0;exitX=0.03;exitY=0.489;exitDx=0;exitDy=0;exitPerimeter=0;" edge="1" parent="215">
                    <mxGeometry width="50" height="50" relative="1" as="geometry">
                        <mxPoint x="62.88000000000011" y="90.05999999999995" as="sourcePoint"/>
                        <mxPoint x="187.1300000000001" y="30" as="targetPoint"/>
                    </mxGeometry>
                </mxCell>
                <mxCell id="220" value="" style="endArrow=none;html=1;strokeColor=default;entryX=0.52;entryY=0.902;entryDx=0;entryDy=0;entryPerimeter=0;" edge="1" parent="215">
                    <mxGeometry width="50" height="50" relative="1" as="geometry">
                        <mxPoint x="33" y="44" as="sourcePoint"/>
                        <mxPoint x="158" y="104.25999999999999" as="targetPoint"/>
                    </mxGeometry>
                </mxCell>
                <mxCell id="221" value="" style="endArrow=none;html=1;strokeColor=default;entryX=0.52;entryY=0.902;entryDx=0;entryDy=0;entryPerimeter=0;exitX=0.269;exitY=0.238;exitDx=0;exitDy=0;exitPerimeter=0;" edge="1" parent="215" source="216">
                    <mxGeometry width="50" height="50" relative="1" as="geometry">
                        <mxPoint x="63" y="29" as="sourcePoint"/>
                        <mxPoint x="188" y="89.25999999999999" as="targetPoint"/>
                    </mxGeometry>
                </mxCell>
                <mxCell id="222" value="" style="endArrow=none;html=1;strokeColor=default;entryX=0.52;entryY=0.902;entryDx=0;entryDy=0;entryPerimeter=0;exitX=0.256;exitY=0.226;exitDx=0;exitDy=0;exitPerimeter=0;" edge="1" parent="215">
                    <mxGeometry width="50" height="50" relative="1" as="geometry">
                        <mxPoint x="96" y="14" as="sourcePoint"/>
                        <mxPoint x="220" y="73.88000000000011" as="targetPoint"/>
                    </mxGeometry>
                </mxCell>
                <mxCell id="61" value="" style="group" vertex="1" connectable="0" parent="1">
                    <mxGeometry x="209" y="-1141" width="250" height="171" as="geometry"/>
                </mxCell>
                <mxCell id="60" value="" style="group" vertex="1" connectable="0" parent="61">
                    <mxGeometry y="11" width="250" height="160" as="geometry"/>
                </mxCell>
                <mxCell id="172" value="" style="group" vertex="1" connectable="0" parent="60">
                    <mxGeometry width="250" height="120" as="geometry"/>
                </mxCell>
                <mxCell id="53" value="" style="html=1;whiteSpace=wrap;shape=isoCube2;backgroundOutline=1;isoAngle=15;" vertex="1" parent="172">
                    <mxGeometry width="250" height="120" as="geometry"/>
                </mxCell>
                <mxCell id="54" value="" style="endArrow=none;html=1;entryX=0.527;entryY=0.027;entryDx=0;entryDy=0;entryPerimeter=0;exitX=0.03;exitY=0.489;exitDx=0;exitDy=0;exitPerimeter=0;" edge="1" parent="172">
                    <mxGeometry width="50" height="50" relative="1" as="geometry">
                        <mxPoint x="31" y="74.05999999999995" as="sourcePoint"/>
                        <mxPoint x="155.25" y="14" as="targetPoint"/>
                    </mxGeometry>
                </mxCell>
                <mxCell id="55" value="" style="endArrow=none;html=1;entryX=0.527;entryY=0.027;entryDx=0;entryDy=0;entryPerimeter=0;exitX=0.03;exitY=0.489;exitDx=0;exitDy=0;exitPerimeter=0;" edge="1" parent="172">
                    <mxGeometry width="50" height="50" relative="1" as="geometry">
                        <mxPoint x="93" y="105.05999999999995" as="sourcePoint"/>
                        <mxPoint x="217.25" y="45" as="targetPoint"/>
                    </mxGeometry>
                </mxCell>
                <mxCell id="56" value="" style="endArrow=none;html=1;entryX=0.527;entryY=0.027;entryDx=0;entryDy=0;entryPerimeter=0;exitX=0.03;exitY=0.489;exitDx=0;exitDy=0;exitPerimeter=0;" edge="1" parent="172">
                    <mxGeometry width="50" height="50" relative="1" as="geometry">
                        <mxPoint x="62.88000000000011" y="90.05999999999995" as="sourcePoint"/>
                        <mxPoint x="187.1300000000001" y="30" as="targetPoint"/>
                    </mxGeometry>
                </mxCell>
                <mxCell id="57" value="" style="endArrow=none;html=1;strokeColor=default;entryX=0.52;entryY=0.902;entryDx=0;entryDy=0;entryPerimeter=0;" edge="1" parent="172">
                    <mxGeometry width="50" height="50" relative="1" as="geometry">
                        <mxPoint x="33" y="44" as="sourcePoint"/>
                        <mxPoint x="158" y="104.25999999999999" as="targetPoint"/>
                    </mxGeometry>
                </mxCell>
                <mxCell id="58" value="" style="endArrow=none;html=1;strokeColor=default;entryX=0.52;entryY=0.902;entryDx=0;entryDy=0;entryPerimeter=0;exitX=0.269;exitY=0.238;exitDx=0;exitDy=0;exitPerimeter=0;" edge="1" parent="172" source="53">
                    <mxGeometry width="50" height="50" relative="1" as="geometry">
                        <mxPoint x="63" y="29" as="sourcePoint"/>
                        <mxPoint x="188" y="89.25999999999999" as="targetPoint"/>
                    </mxGeometry>
                </mxCell>
                <mxCell id="59" value="" style="endArrow=none;html=1;strokeColor=default;entryX=0.52;entryY=0.902;entryDx=0;entryDy=0;entryPerimeter=0;exitX=0.256;exitY=0.226;exitDx=0;exitDy=0;exitPerimeter=0;" edge="1" parent="172">
                    <mxGeometry width="50" height="50" relative="1" as="geometry">
                        <mxPoint x="96" y="14" as="sourcePoint"/>
                        <mxPoint x="220" y="73.88000000000011" as="targetPoint"/>
                    </mxGeometry>
                </mxCell>
                <mxCell id="62" value="" style="html=1;whiteSpace=wrap;shape=isoCube2;backgroundOutline=1;isoAngle=15;" vertex="1" parent="61">
                    <mxGeometry width="250" height="120" as="geometry"/>
                </mxCell>
                <mxCell id="63" value="" style="endArrow=none;html=1;entryX=0.527;entryY=0.027;entryDx=0;entryDy=0;entryPerimeter=0;exitX=0.03;exitY=0.489;exitDx=0;exitDy=0;exitPerimeter=0;" edge="1" parent="61">
                    <mxGeometry width="50" height="50" relative="1" as="geometry">
                        <mxPoint x="31" y="74.05999999999995" as="sourcePoint"/>
                        <mxPoint x="155.25" y="14" as="targetPoint"/>
                    </mxGeometry>
                </mxCell>
                <mxCell id="64" value="" style="endArrow=none;html=1;entryX=0.527;entryY=0.027;entryDx=0;entryDy=0;entryPerimeter=0;exitX=0.03;exitY=0.489;exitDx=0;exitDy=0;exitPerimeter=0;" edge="1" parent="61">
                    <mxGeometry width="50" height="50" relative="1" as="geometry">
                        <mxPoint x="93" y="105.05999999999995" as="sourcePoint"/>
                        <mxPoint x="217.25" y="45" as="targetPoint"/>
                    </mxGeometry>
                </mxCell>
                <mxCell id="65" value="" style="endArrow=none;html=1;entryX=0.527;entryY=0.027;entryDx=0;entryDy=0;entryPerimeter=0;exitX=0.03;exitY=0.489;exitDx=0;exitDy=0;exitPerimeter=0;" edge="1" parent="61">
                    <mxGeometry width="50" height="50" relative="1" as="geometry">
                        <mxPoint x="62.88000000000011" y="90.05999999999995" as="sourcePoint"/>
                        <mxPoint x="187.1300000000001" y="30" as="targetPoint"/>
                    </mxGeometry>
                </mxCell>
                <mxCell id="66" value="" style="endArrow=none;html=1;strokeColor=default;entryX=0.52;entryY=0.902;entryDx=0;entryDy=0;entryPerimeter=0;" edge="1" parent="61">
                    <mxGeometry width="50" height="50" relative="1" as="geometry">
                        <mxPoint x="33" y="44" as="sourcePoint"/>
                        <mxPoint x="158" y="104.25999999999999" as="targetPoint"/>
                    </mxGeometry>
                </mxCell>
                <mxCell id="67" value="" style="endArrow=none;html=1;strokeColor=default;entryX=0.52;entryY=0.902;entryDx=0;entryDy=0;entryPerimeter=0;exitX=0.269;exitY=0.238;exitDx=0;exitDy=0;exitPerimeter=0;" edge="1" parent="61" source="62">
                    <mxGeometry width="50" height="50" relative="1" as="geometry">
                        <mxPoint x="63" y="29" as="sourcePoint"/>
                        <mxPoint x="188" y="89.25999999999999" as="targetPoint"/>
                    </mxGeometry>
                </mxCell>
                <mxCell id="68" value="" style="endArrow=none;html=1;strokeColor=default;entryX=0.52;entryY=0.902;entryDx=0;entryDy=0;entryPerimeter=0;exitX=0.256;exitY=0.226;exitDx=0;exitDy=0;exitPerimeter=0;" edge="1" parent="61">
                    <mxGeometry width="50" height="50" relative="1" as="geometry">
                        <mxPoint x="96" y="14" as="sourcePoint"/>
                        <mxPoint x="220" y="73.88000000000011" as="targetPoint"/>
                    </mxGeometry>
                </mxCell>
                <mxCell id="158" value="" style="html=1;whiteSpace=wrap;shape=isoCube2;backgroundOutline=1;isoAngle=15;" vertex="1" parent="61">
                    <mxGeometry y="-9" width="250" height="120" as="geometry"/>
                </mxCell>
                <mxCell id="159" value="" style="endArrow=none;html=1;entryX=0.527;entryY=0.027;entryDx=0;entryDy=0;entryPerimeter=0;exitX=0.03;exitY=0.489;exitDx=0;exitDy=0;exitPerimeter=0;" edge="1" parent="61">
                    <mxGeometry width="50" height="50" relative="1" as="geometry">
                        <mxPoint x="31" y="65.05999999999995" as="sourcePoint"/>
                        <mxPoint x="155.25" y="5" as="targetPoint"/>
                    </mxGeometry>
                </mxCell>
                <mxCell id="160" value="" style="endArrow=none;html=1;entryX=0.527;entryY=0.027;entryDx=0;entryDy=0;entryPerimeter=0;exitX=0.03;exitY=0.489;exitDx=0;exitDy=0;exitPerimeter=0;" edge="1" parent="61">
                    <mxGeometry width="50" height="50" relative="1" as="geometry">
                        <mxPoint x="93" y="96.05999999999995" as="sourcePoint"/>
                        <mxPoint x="217.25" y="36" as="targetPoint"/>
                    </mxGeometry>
                </mxCell>
                <mxCell id="161" value="" style="endArrow=none;html=1;entryX=0.527;entryY=0.027;entryDx=0;entryDy=0;entryPerimeter=0;exitX=0.03;exitY=0.489;exitDx=0;exitDy=0;exitPerimeter=0;" edge="1" parent="61">
                    <mxGeometry width="50" height="50" relative="1" as="geometry">
                        <mxPoint x="62.88000000000011" y="81.05999999999995" as="sourcePoint"/>
                        <mxPoint x="187.1300000000001" y="21" as="targetPoint"/>
                    </mxGeometry>
                </mxCell>
                <mxCell id="162" value="" style="endArrow=none;html=1;strokeColor=default;entryX=0.52;entryY=0.902;entryDx=0;entryDy=0;entryPerimeter=0;" edge="1" parent="61">
                    <mxGeometry width="50" height="50" relative="1" as="geometry">
                        <mxPoint x="33" y="35" as="sourcePoint"/>
                        <mxPoint x="158" y="95.26000000000022" as="targetPoint"/>
                    </mxGeometry>
                </mxCell>
                <mxCell id="163" value="" style="endArrow=none;html=1;strokeColor=default;entryX=0.52;entryY=0.902;entryDx=0;entryDy=0;entryPerimeter=0;exitX=0.269;exitY=0.238;exitDx=0;exitDy=0;exitPerimeter=0;" edge="1" parent="61" source="158">
                    <mxGeometry width="50" height="50" relative="1" as="geometry">
                        <mxPoint x="-507" y="1039" as="sourcePoint"/>
                        <mxPoint x="188" y="80.26000000000022" as="targetPoint"/>
                    </mxGeometry>
                </mxCell>
                <mxCell id="164" value="" style="endArrow=none;html=1;strokeColor=default;entryX=0.52;entryY=0.902;entryDx=0;entryDy=0;entryPerimeter=0;exitX=0.256;exitY=0.226;exitDx=0;exitDy=0;exitPerimeter=0;" edge="1" parent="61">
                    <mxGeometry width="50" height="50" relative="1" as="geometry">
                        <mxPoint x="96" y="5" as="sourcePoint"/>
                        <mxPoint x="220" y="64.88000000000011" as="targetPoint"/>
                    </mxGeometry>
                </mxCell>
                <mxCell id="165" value="" style="html=1;whiteSpace=wrap;shape=isoCube2;backgroundOutline=1;isoAngle=15;" vertex="1" parent="61">
                    <mxGeometry y="-20" width="250" height="120" as="geometry"/>
                </mxCell>
                <mxCell id="166" value="" style="endArrow=none;html=1;entryX=0.527;entryY=0.027;entryDx=0;entryDy=0;entryPerimeter=0;exitX=0.03;exitY=0.489;exitDx=0;exitDy=0;exitPerimeter=0;" edge="1" parent="61">
                    <mxGeometry width="50" height="50" relative="1" as="geometry">
                        <mxPoint x="31" y="54.059999999999945" as="sourcePoint"/>
                        <mxPoint x="155.25" y="-6" as="targetPoint"/>
                    </mxGeometry>
                </mxCell>
                <mxCell id="167" value="" style="endArrow=none;html=1;entryX=0.527;entryY=0.027;entryDx=0;entryDy=0;entryPerimeter=0;exitX=0.03;exitY=0.489;exitDx=0;exitDy=0;exitPerimeter=0;" edge="1" parent="61">
                    <mxGeometry width="50" height="50" relative="1" as="geometry">
                        <mxPoint x="93" y="85.05999999999995" as="sourcePoint"/>
                        <mxPoint x="217.25" y="25" as="targetPoint"/>
                    </mxGeometry>
                </mxCell>
                <mxCell id="168" value="" style="endArrow=none;html=1;entryX=0.527;entryY=0.027;entryDx=0;entryDy=0;entryPerimeter=0;exitX=0.03;exitY=0.489;exitDx=0;exitDy=0;exitPerimeter=0;" edge="1" parent="61">
                    <mxGeometry width="50" height="50" relative="1" as="geometry">
                        <mxPoint x="62.88000000000011" y="70.05999999999995" as="sourcePoint"/>
                        <mxPoint x="187.1300000000001" y="10" as="targetPoint"/>
                    </mxGeometry>
                </mxCell>
                <mxCell id="169" value="" style="endArrow=none;html=1;strokeColor=default;entryX=0.52;entryY=0.902;entryDx=0;entryDy=0;entryPerimeter=0;" edge="1" parent="61">
                    <mxGeometry width="50" height="50" relative="1" as="geometry">
                        <mxPoint x="33" y="24" as="sourcePoint"/>
                        <mxPoint x="158" y="84.26000000000022" as="targetPoint"/>
                    </mxGeometry>
                </mxCell>
                <mxCell id="170" value="" style="endArrow=none;html=1;strokeColor=default;entryX=0.52;entryY=0.902;entryDx=0;entryDy=0;entryPerimeter=0;exitX=0.269;exitY=0.238;exitDx=0;exitDy=0;exitPerimeter=0;" edge="1" parent="61" source="165">
                    <mxGeometry width="50" height="50" relative="1" as="geometry">
                        <mxPoint x="-507" y="1039" as="sourcePoint"/>
                        <mxPoint x="188" y="69.26000000000022" as="targetPoint"/>
                    </mxGeometry>
                </mxCell>
                <mxCell id="171" value="" style="endArrow=none;html=1;strokeColor=default;entryX=0.52;entryY=0.902;entryDx=0;entryDy=0;entryPerimeter=0;exitX=0.256;exitY=0.226;exitDx=0;exitDy=0;exitPerimeter=0;" edge="1" parent="61">
                    <mxGeometry width="50" height="50" relative="1" as="geometry">
                        <mxPoint x="96" y="-6" as="sourcePoint"/>
                        <mxPoint x="220" y="53.88000000000011" as="targetPoint"/>
                    </mxGeometry>
                </mxCell>
                <mxCell id="6" value="" style="html=1;whiteSpace=wrap;shape=isoCube2;backgroundOutline=1;isoAngle=15;" parent="1" vertex="1">
                    <mxGeometry x="209" y="-1180" width="250" height="130" as="geometry"/>
                </mxCell>
                <mxCell id="ST9EL9cw2-seMEYedsz2-161" value="Planet Scope (PS) Image" style="text;strokeColor=none;fillColor=none;html=1;fontSize=21;fontStyle=0;verticalAlign=middle;align=center;fontFamily=Verdana;" parent="1" vertex="1">
                    <mxGeometry x="20" y="-980" width="300" height="50" as="geometry"/>
                </mxCell>
                <mxCell id="ST9EL9cw2-seMEYedsz2-162" value="UAV Images" style="text;strokeColor=none;fillColor=none;html=1;fontSize=21;fontStyle=0;verticalAlign=middle;align=center;fontFamily=Verdana;" parent="1" vertex="1">
                    <mxGeometry x="404.5" y="-960" width="300" height="50" as="geometry"/>
                </mxCell>
                <mxCell id="242" style="edgeStyle=none;rounded=0;html=1;" edge="1" parent="1" source="ST9EL9cw2-seMEYedsz2-176">
                    <mxGeometry relative="1" as="geometry">
                        <mxPoint x="328" y="-210" as="targetPoint"/>
                    </mxGeometry>
                </mxCell>
                <mxCell id="ST9EL9cw2-seMEYedsz2-176" value="" style="rounded=1;whiteSpace=wrap;html=1;fillColor=none;dashed=1;strokeColor=#3399FF;" parent="1" vertex="1">
                    <mxGeometry x="118" y="-520" width="420" height="270" as="geometry"/>
                </mxCell>
                <mxCell id="ST9EL9cw2-seMEYedsz2-175" value="" style="endArrow=classic;html=1;rounded=0;entryX=0;entryY=0.5;entryDx=0;entryDy=0;" parent="1" target="ST9EL9cw2-seMEYedsz2-182" edge="1">
                    <mxGeometry width="50" height="50" relative="1" as="geometry">
                        <mxPoint x="640" y="-1360" as="sourcePoint"/>
                        <mxPoint x="730" y="-1360" as="targetPoint"/>
                    </mxGeometry>
                </mxCell>
                <mxCell id="ST9EL9cw2-seMEYedsz2-217" style="edgeStyle=orthogonalEdgeStyle;rounded=0;orthogonalLoop=1;jettySize=auto;html=1;entryX=0.5;entryY=0;entryDx=0;entryDy=0;" parent="1" source="ST9EL9cw2-seMEYedsz2-177" target="ST9EL9cw2-seMEYedsz2-219" edge="1">
                    <mxGeometry relative="1" as="geometry">
                        <mxPoint x="940" y="-1119.9999999999998" as="targetPoint"/>
                    </mxGeometry>
                </mxCell>
                <mxCell id="ST9EL9cw2-seMEYedsz2-177" value="" style="shape=table;startSize=0;container=1;collapsible=0;childLayout=tableLayout;fontSize=16;strokeColor=default;" parent="1" vertex="1">
                    <mxGeometry x="790" y="-1510" width="300" height="300" as="geometry"/>
                </mxCell>
                <mxCell id="ST9EL9cw2-seMEYedsz2-178" value="" style="shape=tableRow;horizontal=0;startSize=0;swimlaneHead=0;swimlaneBody=0;strokeColor=inherit;top=0;left=0;bottom=0;right=0;collapsible=0;dropTarget=0;fillColor=none;points=[[0,0.5],[1,0.5]];portConstraint=eastwest;fontSize=16;" parent="ST9EL9cw2-seMEYedsz2-177" vertex="1">
                    <mxGeometry width="300" height="101" as="geometry"/>
                </mxCell>
                <mxCell id="ST9EL9cw2-seMEYedsz2-179" value="" style="shape=partialRectangle;html=1;whiteSpace=wrap;connectable=0;strokeColor=inherit;overflow=hidden;fillColor=none;top=0;left=0;bottom=0;right=0;pointerEvents=1;fontSize=16;strokeWidth=3;" parent="ST9EL9cw2-seMEYedsz2-178" vertex="1">
                    <mxGeometry width="100" height="101" as="geometry">
                        <mxRectangle width="100" height="101" as="alternateBounds"/>
                    </mxGeometry>
                </mxCell>
                <mxCell id="ST9EL9cw2-seMEYedsz2-180" value="" style="shape=partialRectangle;html=1;whiteSpace=wrap;connectable=0;strokeColor=inherit;overflow=hidden;fillColor=none;top=0;left=0;bottom=0;right=0;pointerEvents=1;fontSize=16;strokeWidth=3;" parent="ST9EL9cw2-seMEYedsz2-178" vertex="1">
                    <mxGeometry x="100" width="100" height="101" as="geometry">
                        <mxRectangle width="100" height="101" as="alternateBounds"/>
                    </mxGeometry>
                </mxCell>
                <mxCell id="ST9EL9cw2-seMEYedsz2-181" value="" style="shape=partialRectangle;html=1;whiteSpace=wrap;connectable=0;strokeColor=inherit;overflow=hidden;fillColor=#dae8fc;top=0;left=0;bottom=0;right=0;pointerEvents=1;fontSize=16;" parent="ST9EL9cw2-seMEYedsz2-178" vertex="1">
                    <mxGeometry x="200" width="100" height="101" as="geometry">
                        <mxRectangle width="100" height="101" as="alternateBounds"/>
                    </mxGeometry>
                </mxCell>
                <mxCell id="ST9EL9cw2-seMEYedsz2-182" value="" style="shape=tableRow;horizontal=0;startSize=0;swimlaneHead=0;swimlaneBody=0;strokeColor=inherit;top=0;left=0;bottom=0;right=0;collapsible=0;dropTarget=0;fillColor=none;points=[[0,0.5],[1,0.5]];portConstraint=eastwest;fontSize=16;" parent="ST9EL9cw2-seMEYedsz2-177" vertex="1">
                    <mxGeometry y="101" width="300" height="98" as="geometry"/>
                </mxCell>
                <mxCell id="ST9EL9cw2-seMEYedsz2-183" value="" style="shape=partialRectangle;html=1;whiteSpace=wrap;connectable=0;strokeColor=#000000;overflow=hidden;fillColor=none;top=0;left=0;bottom=0;right=0;pointerEvents=1;fontSize=16;" parent="ST9EL9cw2-seMEYedsz2-182" vertex="1">
                    <mxGeometry width="100" height="98" as="geometry">
                        <mxRectangle width="100" height="98" as="alternateBounds"/>
                    </mxGeometry>
                </mxCell>
                <mxCell id="ST9EL9cw2-seMEYedsz2-184" value="" style="shape=partialRectangle;html=1;whiteSpace=wrap;connectable=0;strokeColor=inherit;overflow=hidden;fillColor=#dae8fc;top=0;left=0;bottom=0;right=0;pointerEvents=1;fontSize=16;strokeWidth=3;fillStyle=solid;" parent="ST9EL9cw2-seMEYedsz2-182" vertex="1">
                    <mxGeometry x="100" width="100" height="98" as="geometry">
                        <mxRectangle width="100" height="98" as="alternateBounds"/>
                    </mxGeometry>
                </mxCell>
                <mxCell id="ST9EL9cw2-seMEYedsz2-185" value="" style="shape=partialRectangle;html=1;whiteSpace=wrap;connectable=0;strokeColor=inherit;overflow=hidden;fillColor=none;top=0;left=0;bottom=0;right=0;pointerEvents=1;fontSize=16;" parent="ST9EL9cw2-seMEYedsz2-182" vertex="1">
                    <mxGeometry x="200" width="100" height="98" as="geometry">
                        <mxRectangle width="100" height="98" as="alternateBounds"/>
                    </mxGeometry>
                </mxCell>
                <mxCell id="ST9EL9cw2-seMEYedsz2-186" value="" style="shape=tableRow;horizontal=0;startSize=0;swimlaneHead=0;swimlaneBody=0;strokeColor=inherit;top=0;left=0;bottom=0;right=0;collapsible=0;dropTarget=0;fillColor=none;points=[[0,0.5],[1,0.5]];portConstraint=eastwest;fontSize=16;" parent="ST9EL9cw2-seMEYedsz2-177" vertex="1">
                    <mxGeometry y="199" width="300" height="101" as="geometry"/>
                </mxCell>
                <mxCell id="ST9EL9cw2-seMEYedsz2-187" value="" style="shape=partialRectangle;html=1;whiteSpace=wrap;connectable=0;strokeColor=inherit;overflow=hidden;fillColor=none;top=0;left=0;bottom=0;right=0;pointerEvents=1;fontSize=16;" parent="ST9EL9cw2-seMEYedsz2-186" vertex="1">
                    <mxGeometry width="100" height="101" as="geometry">
                        <mxRectangle width="100" height="101" as="alternateBounds"/>
                    </mxGeometry>
                </mxCell>
                <mxCell id="ST9EL9cw2-seMEYedsz2-188" value="" style="shape=partialRectangle;html=1;whiteSpace=wrap;connectable=0;strokeColor=inherit;overflow=hidden;fillColor=#dae8fc;top=0;left=0;bottom=0;right=0;pointerEvents=1;fontSize=16;strokeWidth=2;" parent="ST9EL9cw2-seMEYedsz2-186" vertex="1">
                    <mxGeometry x="100" width="100" height="101" as="geometry">
                        <mxRectangle width="100" height="101" as="alternateBounds"/>
                    </mxGeometry>
                </mxCell>
                <mxCell id="ST9EL9cw2-seMEYedsz2-189" value="" style="shape=partialRectangle;html=1;whiteSpace=wrap;connectable=0;strokeColor=inherit;overflow=hidden;fillColor=none;top=0;left=0;bottom=0;right=0;pointerEvents=1;fontSize=16;" parent="ST9EL9cw2-seMEYedsz2-186" vertex="1">
                    <mxGeometry x="200" width="100" height="101" as="geometry">
                        <mxRectangle width="100" height="101" as="alternateBounds"/>
                    </mxGeometry>
                </mxCell>
                <mxCell id="ST9EL9cw2-seMEYedsz2-190" value="Homogeneus Pixel Selection" style="text;strokeColor=none;fillColor=none;html=1;fontSize=21;fontStyle=0;verticalAlign=middle;align=center;fontFamily=Verdana;" parent="1" vertex="1">
                    <mxGeometry x="660" y="-1600" width="300" height="50" as="geometry"/>
                </mxCell>
                <mxCell id="ST9EL9cw2-seMEYedsz2-210" value="Sd PS grid&amp;nbsp;" style="text;strokeColor=none;fillColor=none;html=1;fontSize=21;fontStyle=0;verticalAlign=middle;align=center;fontFamily=Verdana;" parent="1" vertex="1">
                    <mxGeometry x="620" y="-1440" width="190" height="70" as="geometry"/>
                </mxCell>
                <mxCell id="ST9EL9cw2-seMEYedsz2-211" value="" style="shape=waypoint;sketch=0;fillStyle=solid;size=6;pointerEvents=1;points=[];fillColor=none;resizable=0;rotatable=0;perimeter=centerPerimeter;snapToPoint=1;fontColor=#000000;strokeColor=#000000;" parent="1" vertex="1">
                    <mxGeometry x="930" y="-1268" width="20" height="20" as="geometry"/>
                </mxCell>
                <mxCell id="ST9EL9cw2-seMEYedsz2-212" value="" style="shape=waypoint;sketch=0;fillStyle=solid;size=6;pointerEvents=1;points=[];fillColor=none;resizable=0;rotatable=0;perimeter=centerPerimeter;snapToPoint=1;strokeColor=#000000;" parent="1" vertex="1">
                    <mxGeometry x="930" y="-1370" width="20" height="20" as="geometry"/>
                </mxCell>
                <mxCell id="ST9EL9cw2-seMEYedsz2-213" value="" style="shape=waypoint;sketch=0;fillStyle=solid;size=6;pointerEvents=1;points=[];fillColor=none;resizable=0;rotatable=0;perimeter=centerPerimeter;snapToPoint=1;strokeColor=#000000;" parent="1" vertex="1">
                    <mxGeometry x="1030" y="-1470" width="20" height="20" as="geometry"/>
                </mxCell>
                <mxCell id="ST9EL9cw2-seMEYedsz2-221" style="edgeStyle=orthogonalEdgeStyle;rounded=0;orthogonalLoop=1;jettySize=auto;html=1;entryX=0.5;entryY=0;entryDx=0;entryDy=0;" parent="1" source="ST9EL9cw2-seMEYedsz2-219" target="ST9EL9cw2-seMEYedsz2-222" edge="1">
                    <mxGeometry relative="1" as="geometry">
                        <mxPoint x="941" y="-1059.9999999999998" as="targetPoint"/>
                    </mxGeometry>
                </mxCell>
                <mxCell id="ST9EL9cw2-seMEYedsz2-219" value="&lt;span style=&quot;font-family: Verdana; text-wrap: nowrap;&quot;&gt;&lt;font style=&quot;font-size: 16px;&quot;&gt;PS and UAV point sample&lt;/font&gt;&lt;/span&gt;" style="rounded=0;whiteSpace=wrap;html=1;" parent="1" vertex="1">
                    <mxGeometry x="825" y="-1170" width="230" height="40" as="geometry"/>
                </mxCell>
                <mxCell id="ST9EL9cw2-seMEYedsz2-224" style="edgeStyle=orthogonalEdgeStyle;rounded=0;orthogonalLoop=1;jettySize=auto;html=1;entryX=0.5;entryY=0;entryDx=0;entryDy=0;" parent="1" source="ST9EL9cw2-seMEYedsz2-222" target="ST9EL9cw2-seMEYedsz2-223" edge="1">
                    <mxGeometry relative="1" as="geometry"/>
                </mxCell>
                <mxCell id="ST9EL9cw2-seMEYedsz2-222" value="Linear fit PS ~ UAV" style="shape=parallelogram;perimeter=parallelogramPerimeter;whiteSpace=wrap;html=1;fixedSize=1;fontSize=15;" parent="1" vertex="1">
                    <mxGeometry x="835" y="-1100" width="210" height="60" as="geometry"/>
                </mxCell>
                <mxCell id="ST9EL9cw2-seMEYedsz2-223" value="PS pixel reflectance&amp;nbsp;&lt;div&gt;correction with cages&lt;/div&gt;" style="shape=parallelogram;perimeter=parallelogramPerimeter;whiteSpace=wrap;html=1;fixedSize=1;fontSize=15;fillColor=#fff2cc;strokeColor=#d6b656;fontColor=#000000;" parent="1" vertex="1">
                    <mxGeometry x="825" y="-1010" width="230" height="70" as="geometry"/>
                </mxCell>
                <mxCell id="27" value="" style="endArrow=none;html=1;entryX=0.527;entryY=0.027;entryDx=0;entryDy=0;entryPerimeter=0;exitX=0.03;exitY=0.489;exitDx=0;exitDy=0;exitPerimeter=0;" parent="1" edge="1">
                    <mxGeometry width="50" height="50" relative="1" as="geometry">
                        <mxPoint x="240.00000000000006" y="-1105.94" as="sourcePoint"/>
                        <mxPoint x="364.25" y="-1166" as="targetPoint"/>
                    </mxGeometry>
                </mxCell>
                <mxCell id="28" value="" style="endArrow=none;html=1;entryX=0.527;entryY=0.027;entryDx=0;entryDy=0;entryPerimeter=0;exitX=0.03;exitY=0.489;exitDx=0;exitDy=0;exitPerimeter=0;" parent="1" edge="1">
                    <mxGeometry width="50" height="50" relative="1" as="geometry">
                        <mxPoint x="302" y="-1074.94" as="sourcePoint"/>
                        <mxPoint x="426.25" y="-1135" as="targetPoint"/>
                    </mxGeometry>
                </mxCell>
                <mxCell id="29" value="" style="endArrow=none;html=1;entryX=0.527;entryY=0.027;entryDx=0;entryDy=0;entryPerimeter=0;exitX=0.03;exitY=0.489;exitDx=0;exitDy=0;exitPerimeter=0;" parent="1" edge="1">
                    <mxGeometry width="50" height="50" relative="1" as="geometry">
                        <mxPoint x="271.88" y="-1089.94" as="sourcePoint"/>
                        <mxPoint x="396.13" y="-1150" as="targetPoint"/>
                    </mxGeometry>
                </mxCell>
                <mxCell id="45" value="" style="endArrow=none;html=1;strokeColor=default;entryX=0.52;entryY=0.902;entryDx=0;entryDy=0;entryPerimeter=0;" parent="1" edge="1">
                    <mxGeometry width="50" height="50" relative="1" as="geometry">
                        <mxPoint x="242" y="-1136" as="sourcePoint"/>
                        <mxPoint x="367" y="-1075.74" as="targetPoint"/>
                    </mxGeometry>
                </mxCell>
                <mxCell id="46" value="" style="endArrow=none;html=1;strokeColor=default;entryX=0.52;entryY=0.902;entryDx=0;entryDy=0;entryPerimeter=0;exitX=0.256;exitY=0.226;exitDx=0;exitDy=0;exitPerimeter=0;" parent="1" source="6" edge="1">
                    <mxGeometry width="50" height="50" relative="1" as="geometry">
                        <mxPoint x="272" y="-1151" as="sourcePoint"/>
                        <mxPoint x="397" y="-1090.74" as="targetPoint"/>
                    </mxGeometry>
                </mxCell>
                <mxCell id="47" value="" style="endArrow=none;html=1;strokeColor=default;entryX=0.52;entryY=0.902;entryDx=0;entryDy=0;entryPerimeter=0;exitX=0.256;exitY=0.226;exitDx=0;exitDy=0;exitPerimeter=0;" parent="1" edge="1">
                    <mxGeometry width="50" height="50" relative="1" as="geometry">
                        <mxPoint x="305" y="-1166" as="sourcePoint"/>
                        <mxPoint x="429" y="-1106.12" as="targetPoint"/>
                    </mxGeometry>
                </mxCell>
                <mxCell id="49" value="" style="shape=waypoint;sketch=0;fillStyle=solid;size=6;pointerEvents=1;points=[];fillColor=none;resizable=0;rotatable=0;perimeter=centerPerimeter;snapToPoint=1;" parent="1" vertex="1">
                    <mxGeometry x="229" y="-1136" width="20" height="20" as="geometry"/>
                </mxCell>
                <mxCell id="50" value="" style="shape=waypoint;sketch=0;fillStyle=solid;size=6;pointerEvents=1;points=[];fillColor=none;resizable=0;rotatable=0;perimeter=centerPerimeter;snapToPoint=1;" parent="1" vertex="1">
                    <mxGeometry x="326" y="-1150" width="20" height="20" as="geometry"/>
                </mxCell>
                <mxCell id="51" value="" style="shape=waypoint;sketch=0;fillStyle=solid;size=6;pointerEvents=1;points=[];fillColor=none;resizable=0;rotatable=0;perimeter=centerPerimeter;snapToPoint=1;" parent="1" vertex="1">
                    <mxGeometry x="357" y="-1135" width="20" height="20" as="geometry"/>
                </mxCell>
                <mxCell id="52" value="" style="shape=waypoint;sketch=0;fillStyle=solid;size=6;pointerEvents=1;points=[];fillColor=none;resizable=0;rotatable=0;perimeter=centerPerimeter;snapToPoint=1;" parent="1" vertex="1">
                    <mxGeometry x="324" y="-1089" width="20" height="20" as="geometry"/>
                </mxCell>
                <mxCell id="126" value="" style="group" vertex="1" connectable="0" parent="1">
                    <mxGeometry x="20" y="-1460" width="252" height="140" as="geometry"/>
                </mxCell>
                <mxCell id="102" value="" style="group" vertex="1" connectable="0" parent="126">
                    <mxGeometry y="20" width="250" height="120" as="geometry"/>
                </mxCell>
                <mxCell id="103" value="" style="html=1;whiteSpace=wrap;shape=isoCube2;backgroundOutline=1;isoAngle=15;" vertex="1" parent="102">
                    <mxGeometry width="250" height="120" as="geometry"/>
                </mxCell>
                <mxCell id="104" value="" style="endArrow=none;html=1;entryX=0.527;entryY=0.027;entryDx=0;entryDy=0;entryPerimeter=0;exitX=0.03;exitY=0.489;exitDx=0;exitDy=0;exitPerimeter=0;" edge="1" parent="102">
                    <mxGeometry width="50" height="50" relative="1" as="geometry">
                        <mxPoint x="31" y="74.05999999999995" as="sourcePoint"/>
                        <mxPoint x="155.25" y="14" as="targetPoint"/>
                    </mxGeometry>
                </mxCell>
                <mxCell id="105" value="" style="endArrow=none;html=1;entryX=0.527;entryY=0.027;entryDx=0;entryDy=0;entryPerimeter=0;exitX=0.03;exitY=0.489;exitDx=0;exitDy=0;exitPerimeter=0;" edge="1" parent="102">
                    <mxGeometry width="50" height="50" relative="1" as="geometry">
                        <mxPoint x="93" y="105.05999999999995" as="sourcePoint"/>
                        <mxPoint x="217.25" y="45" as="targetPoint"/>
                    </mxGeometry>
                </mxCell>
                <mxCell id="106" value="" style="endArrow=none;html=1;entryX=0.527;entryY=0.027;entryDx=0;entryDy=0;entryPerimeter=0;exitX=0.03;exitY=0.489;exitDx=0;exitDy=0;exitPerimeter=0;" edge="1" parent="102">
                    <mxGeometry width="50" height="50" relative="1" as="geometry">
                        <mxPoint x="62.88000000000011" y="90.05999999999995" as="sourcePoint"/>
                        <mxPoint x="187.1300000000001" y="30" as="targetPoint"/>
                    </mxGeometry>
                </mxCell>
                <mxCell id="107" value="" style="endArrow=none;html=1;strokeColor=default;entryX=0.52;entryY=0.902;entryDx=0;entryDy=0;entryPerimeter=0;" edge="1" parent="102">
                    <mxGeometry width="50" height="50" relative="1" as="geometry">
                        <mxPoint x="33" y="44" as="sourcePoint"/>
                        <mxPoint x="158" y="104.25999999999999" as="targetPoint"/>
                    </mxGeometry>
                </mxCell>
                <mxCell id="108" value="" style="endArrow=none;html=1;strokeColor=default;entryX=0.52;entryY=0.902;entryDx=0;entryDy=0;entryPerimeter=0;exitX=0.269;exitY=0.238;exitDx=0;exitDy=0;exitPerimeter=0;" edge="1" parent="102" source="103">
                    <mxGeometry width="50" height="50" relative="1" as="geometry">
                        <mxPoint x="63" y="29" as="sourcePoint"/>
                        <mxPoint x="188" y="89.25999999999999" as="targetPoint"/>
                    </mxGeometry>
                </mxCell>
                <mxCell id="109" value="" style="endArrow=none;html=1;strokeColor=default;entryX=0.52;entryY=0.902;entryDx=0;entryDy=0;entryPerimeter=0;exitX=0.256;exitY=0.226;exitDx=0;exitDy=0;exitPerimeter=0;" edge="1" parent="102">
                    <mxGeometry width="50" height="50" relative="1" as="geometry">
                        <mxPoint x="96" y="14" as="sourcePoint"/>
                        <mxPoint x="220" y="73.88000000000011" as="targetPoint"/>
                    </mxGeometry>
                </mxCell>
                <mxCell id="118" value="" style="group" vertex="1" connectable="0" parent="126">
                    <mxGeometry x="1" width="251" height="120" as="geometry"/>
                </mxCell>
                <mxCell id="119" value="" style="html=1;whiteSpace=wrap;shape=isoCube2;backgroundOutline=1;isoAngle=15;" vertex="1" parent="118">
                    <mxGeometry width="250" height="120" as="geometry"/>
                </mxCell>
                <mxCell id="120" value="" style="endArrow=none;html=1;entryX=0.527;entryY=0.027;entryDx=0;entryDy=0;entryPerimeter=0;exitX=0.03;exitY=0.489;exitDx=0;exitDy=0;exitPerimeter=0;" edge="1" parent="118">
                    <mxGeometry width="50" height="50" relative="1" as="geometry">
                        <mxPoint x="31" y="74.05999999999995" as="sourcePoint"/>
                        <mxPoint x="155.25" y="14" as="targetPoint"/>
                    </mxGeometry>
                </mxCell>
                <mxCell id="121" value="" style="endArrow=none;html=1;entryX=0.527;entryY=0.027;entryDx=0;entryDy=0;entryPerimeter=0;exitX=0.03;exitY=0.489;exitDx=0;exitDy=0;exitPerimeter=0;" edge="1" parent="118">
                    <mxGeometry width="50" height="50" relative="1" as="geometry">
                        <mxPoint x="93" y="105.05999999999995" as="sourcePoint"/>
                        <mxPoint x="217.25" y="45" as="targetPoint"/>
                    </mxGeometry>
                </mxCell>
                <mxCell id="122" value="" style="endArrow=none;html=1;entryX=0.527;entryY=0.027;entryDx=0;entryDy=0;entryPerimeter=0;exitX=0.03;exitY=0.489;exitDx=0;exitDy=0;exitPerimeter=0;" edge="1" parent="118">
                    <mxGeometry width="50" height="50" relative="1" as="geometry">
                        <mxPoint x="62.88000000000011" y="90.05999999999995" as="sourcePoint"/>
                        <mxPoint x="187.1300000000001" y="30" as="targetPoint"/>
                    </mxGeometry>
                </mxCell>
                <mxCell id="123" value="" style="endArrow=none;html=1;strokeColor=default;entryX=0.52;entryY=0.902;entryDx=0;entryDy=0;entryPerimeter=0;" edge="1" parent="118">
                    <mxGeometry width="50" height="50" relative="1" as="geometry">
                        <mxPoint x="33" y="44" as="sourcePoint"/>
                        <mxPoint x="158" y="104.25999999999999" as="targetPoint"/>
                    </mxGeometry>
                </mxCell>
                <mxCell id="124" value="" style="endArrow=none;html=1;strokeColor=default;entryX=0.52;entryY=0.902;entryDx=0;entryDy=0;entryPerimeter=0;exitX=0.269;exitY=0.238;exitDx=0;exitDy=0;exitPerimeter=0;" edge="1" parent="118" source="119">
                    <mxGeometry width="50" height="50" relative="1" as="geometry">
                        <mxPoint x="63" y="29" as="sourcePoint"/>
                        <mxPoint x="188" y="89.25999999999999" as="targetPoint"/>
                    </mxGeometry>
                </mxCell>
                <mxCell id="125" value="" style="endArrow=none;html=1;strokeColor=default;entryX=0.52;entryY=0.902;entryDx=0;entryDy=0;entryPerimeter=0;exitX=0.256;exitY=0.226;exitDx=0;exitDy=0;exitPerimeter=0;" edge="1" parent="118">
                    <mxGeometry width="50" height="50" relative="1" as="geometry">
                        <mxPoint x="96" y="14" as="sourcePoint"/>
                        <mxPoint x="220" y="73.88000000000011" as="targetPoint"/>
                    </mxGeometry>
                </mxCell>
                <mxCell id="127" value="" style="group" vertex="1" connectable="0" parent="118">
                    <mxGeometry y="-40" width="251" height="140" as="geometry"/>
                </mxCell>
                <mxCell id="128" value="" style="group" vertex="1" connectable="0" parent="127">
                    <mxGeometry y="20" width="250" height="120" as="geometry"/>
                </mxCell>
                <mxCell id="129" value="" style="html=1;whiteSpace=wrap;shape=isoCube2;backgroundOutline=1;isoAngle=15;" vertex="1" parent="128">
                    <mxGeometry width="250" height="120" as="geometry"/>
                </mxCell>
                <mxCell id="130" value="" style="endArrow=none;html=1;entryX=0.527;entryY=0.027;entryDx=0;entryDy=0;entryPerimeter=0;exitX=0.03;exitY=0.489;exitDx=0;exitDy=0;exitPerimeter=0;" edge="1" parent="128">
                    <mxGeometry width="50" height="50" relative="1" as="geometry">
                        <mxPoint x="31" y="74.05999999999995" as="sourcePoint"/>
                        <mxPoint x="155.25" y="14" as="targetPoint"/>
                    </mxGeometry>
                </mxCell>
                <mxCell id="131" value="" style="endArrow=none;html=1;entryX=0.527;entryY=0.027;entryDx=0;entryDy=0;entryPerimeter=0;exitX=0.03;exitY=0.489;exitDx=0;exitDy=0;exitPerimeter=0;" edge="1" parent="128">
                    <mxGeometry width="50" height="50" relative="1" as="geometry">
                        <mxPoint x="93" y="105.05999999999995" as="sourcePoint"/>
                        <mxPoint x="217.25" y="45" as="targetPoint"/>
                    </mxGeometry>
                </mxCell>
                <mxCell id="132" value="" style="endArrow=none;html=1;entryX=0.527;entryY=0.027;entryDx=0;entryDy=0;entryPerimeter=0;exitX=0.03;exitY=0.489;exitDx=0;exitDy=0;exitPerimeter=0;" edge="1" parent="128">
                    <mxGeometry width="50" height="50" relative="1" as="geometry">
                        <mxPoint x="62.88000000000011" y="90.05999999999995" as="sourcePoint"/>
                        <mxPoint x="187.1300000000001" y="30" as="targetPoint"/>
                    </mxGeometry>
                </mxCell>
                <mxCell id="133" value="" style="endArrow=none;html=1;strokeColor=default;entryX=0.52;entryY=0.902;entryDx=0;entryDy=0;entryPerimeter=0;" edge="1" parent="128">
                    <mxGeometry width="50" height="50" relative="1" as="geometry">
                        <mxPoint x="33" y="44" as="sourcePoint"/>
                        <mxPoint x="158" y="104.25999999999999" as="targetPoint"/>
                    </mxGeometry>
                </mxCell>
                <mxCell id="134" value="" style="endArrow=none;html=1;strokeColor=default;entryX=0.52;entryY=0.902;entryDx=0;entryDy=0;entryPerimeter=0;exitX=0.269;exitY=0.238;exitDx=0;exitDy=0;exitPerimeter=0;" edge="1" parent="128" source="129">
                    <mxGeometry width="50" height="50" relative="1" as="geometry">
                        <mxPoint x="63" y="29" as="sourcePoint"/>
                        <mxPoint x="188" y="89.25999999999999" as="targetPoint"/>
                    </mxGeometry>
                </mxCell>
                <mxCell id="135" value="" style="endArrow=none;html=1;strokeColor=default;entryX=0.52;entryY=0.902;entryDx=0;entryDy=0;entryPerimeter=0;exitX=0.256;exitY=0.226;exitDx=0;exitDy=0;exitPerimeter=0;" edge="1" parent="128">
                    <mxGeometry width="50" height="50" relative="1" as="geometry">
                        <mxPoint x="96" y="14" as="sourcePoint"/>
                        <mxPoint x="220" y="73.88000000000011" as="targetPoint"/>
                    </mxGeometry>
                </mxCell>
                <mxCell id="136" value="" style="group" vertex="1" connectable="0" parent="127">
                    <mxGeometry x="1" width="250" height="120" as="geometry"/>
                </mxCell>
                <mxCell id="137" value="" style="html=1;whiteSpace=wrap;shape=isoCube2;backgroundOutline=1;isoAngle=15;" vertex="1" parent="136">
                    <mxGeometry width="250" height="120" as="geometry"/>
                </mxCell>
                <mxCell id="138" value="" style="endArrow=none;html=1;entryX=0.527;entryY=0.027;entryDx=0;entryDy=0;entryPerimeter=0;exitX=0.03;exitY=0.489;exitDx=0;exitDy=0;exitPerimeter=0;" edge="1" parent="136">
                    <mxGeometry width="50" height="50" relative="1" as="geometry">
                        <mxPoint x="31" y="74.05999999999995" as="sourcePoint"/>
                        <mxPoint x="155.25" y="14" as="targetPoint"/>
                    </mxGeometry>
                </mxCell>
                <mxCell id="139" value="" style="endArrow=none;html=1;entryX=0.527;entryY=0.027;entryDx=0;entryDy=0;entryPerimeter=0;exitX=0.03;exitY=0.489;exitDx=0;exitDy=0;exitPerimeter=0;" edge="1" parent="136">
                    <mxGeometry width="50" height="50" relative="1" as="geometry">
                        <mxPoint x="93" y="105.05999999999995" as="sourcePoint"/>
                        <mxPoint x="217.25" y="45" as="targetPoint"/>
                    </mxGeometry>
                </mxCell>
                <mxCell id="140" value="" style="endArrow=none;html=1;entryX=0.527;entryY=0.027;entryDx=0;entryDy=0;entryPerimeter=0;exitX=0.03;exitY=0.489;exitDx=0;exitDy=0;exitPerimeter=0;" edge="1" parent="136">
                    <mxGeometry width="50" height="50" relative="1" as="geometry">
                        <mxPoint x="62.88000000000011" y="90.05999999999995" as="sourcePoint"/>
                        <mxPoint x="187.1300000000001" y="30" as="targetPoint"/>
                    </mxGeometry>
                </mxCell>
                <mxCell id="141" value="" style="endArrow=none;html=1;strokeColor=default;entryX=0.52;entryY=0.902;entryDx=0;entryDy=0;entryPerimeter=0;" edge="1" parent="136">
                    <mxGeometry width="50" height="50" relative="1" as="geometry">
                        <mxPoint x="33" y="44" as="sourcePoint"/>
                        <mxPoint x="158" y="104.25999999999999" as="targetPoint"/>
                    </mxGeometry>
                </mxCell>
                <mxCell id="142" value="" style="endArrow=none;html=1;strokeColor=default;entryX=0.52;entryY=0.902;entryDx=0;entryDy=0;entryPerimeter=0;exitX=0.269;exitY=0.238;exitDx=0;exitDy=0;exitPerimeter=0;" edge="1" parent="136" source="137">
                    <mxGeometry width="50" height="50" relative="1" as="geometry">
                        <mxPoint x="63" y="29" as="sourcePoint"/>
                        <mxPoint x="188" y="89.25999999999999" as="targetPoint"/>
                    </mxGeometry>
                </mxCell>
                <mxCell id="143" value="" style="endArrow=none;html=1;strokeColor=default;entryX=0.52;entryY=0.902;entryDx=0;entryDy=0;entryPerimeter=0;exitX=0.256;exitY=0.226;exitDx=0;exitDy=0;exitPerimeter=0;" edge="1" parent="136">
                    <mxGeometry width="50" height="50" relative="1" as="geometry">
                        <mxPoint x="96" y="14" as="sourcePoint"/>
                        <mxPoint x="220" y="73.88000000000011" as="targetPoint"/>
                    </mxGeometry>
                </mxCell>
                <mxCell id="214" value="" style="group" vertex="1" connectable="0" parent="1">
                    <mxGeometry x="226" y="-760" width="250" height="170" as="geometry"/>
                </mxCell>
                <mxCell id="174" value="" style="group" vertex="1" connectable="0" parent="214">
                    <mxGeometry y="50" width="250" height="120" as="geometry"/>
                </mxCell>
                <mxCell id="175" value="" style="html=1;whiteSpace=wrap;shape=isoCube2;backgroundOutline=1;isoAngle=15;" vertex="1" parent="174">
                    <mxGeometry width="250" height="120" as="geometry"/>
                </mxCell>
                <mxCell id="176" value="" style="endArrow=none;html=1;entryX=0.527;entryY=0.027;entryDx=0;entryDy=0;entryPerimeter=0;exitX=0.03;exitY=0.489;exitDx=0;exitDy=0;exitPerimeter=0;" edge="1" parent="174">
                    <mxGeometry width="50" height="50" relative="1" as="geometry">
                        <mxPoint x="31" y="74.05999999999995" as="sourcePoint"/>
                        <mxPoint x="155.25" y="14" as="targetPoint"/>
                    </mxGeometry>
                </mxCell>
                <mxCell id="177" value="" style="endArrow=none;html=1;entryX=0.527;entryY=0.027;entryDx=0;entryDy=0;entryPerimeter=0;exitX=0.03;exitY=0.489;exitDx=0;exitDy=0;exitPerimeter=0;" edge="1" parent="174">
                    <mxGeometry width="50" height="50" relative="1" as="geometry">
                        <mxPoint x="93" y="105.05999999999995" as="sourcePoint"/>
                        <mxPoint x="217.25" y="45" as="targetPoint"/>
                    </mxGeometry>
                </mxCell>
                <mxCell id="178" value="" style="endArrow=none;html=1;entryX=0.527;entryY=0.027;entryDx=0;entryDy=0;entryPerimeter=0;exitX=0.03;exitY=0.489;exitDx=0;exitDy=0;exitPerimeter=0;" edge="1" parent="174">
                    <mxGeometry width="50" height="50" relative="1" as="geometry">
                        <mxPoint x="62.88000000000011" y="90.05999999999995" as="sourcePoint"/>
                        <mxPoint x="187.1300000000001" y="30" as="targetPoint"/>
                    </mxGeometry>
                </mxCell>
                <mxCell id="179" value="" style="endArrow=none;html=1;strokeColor=default;entryX=0.52;entryY=0.902;entryDx=0;entryDy=0;entryPerimeter=0;" edge="1" parent="174">
                    <mxGeometry width="50" height="50" relative="1" as="geometry">
                        <mxPoint x="33" y="44" as="sourcePoint"/>
                        <mxPoint x="158" y="104.25999999999999" as="targetPoint"/>
                    </mxGeometry>
                </mxCell>
                <mxCell id="180" value="" style="endArrow=none;html=1;strokeColor=default;entryX=0.52;entryY=0.902;entryDx=0;entryDy=0;entryPerimeter=0;exitX=0.269;exitY=0.238;exitDx=0;exitDy=0;exitPerimeter=0;" edge="1" parent="174" source="175">
                    <mxGeometry width="50" height="50" relative="1" as="geometry">
                        <mxPoint x="63" y="29" as="sourcePoint"/>
                        <mxPoint x="188" y="89.25999999999999" as="targetPoint"/>
                    </mxGeometry>
                </mxCell>
                <mxCell id="181" value="" style="endArrow=none;html=1;strokeColor=default;entryX=0.52;entryY=0.902;entryDx=0;entryDy=0;entryPerimeter=0;exitX=0.256;exitY=0.226;exitDx=0;exitDy=0;exitPerimeter=0;" edge="1" parent="174">
                    <mxGeometry width="50" height="50" relative="1" as="geometry">
                        <mxPoint x="96" y="14" as="sourcePoint"/>
                        <mxPoint x="220" y="73.88000000000011" as="targetPoint"/>
                    </mxGeometry>
                </mxCell>
                <mxCell id="182" value="" style="html=1;whiteSpace=wrap;shape=isoCube2;backgroundOutline=1;isoAngle=15;" vertex="1" parent="214">
                    <mxGeometry y="39" width="250" height="120" as="geometry"/>
                </mxCell>
                <mxCell id="183" value="" style="endArrow=none;html=1;entryX=0.527;entryY=0.027;entryDx=0;entryDy=0;entryPerimeter=0;exitX=0.03;exitY=0.489;exitDx=0;exitDy=0;exitPerimeter=0;" edge="1" parent="214">
                    <mxGeometry width="50" height="50" relative="1" as="geometry">
                        <mxPoint x="31" y="113.06000000000017" as="sourcePoint"/>
                        <mxPoint x="155.25" y="52.99999999999977" as="targetPoint"/>
                    </mxGeometry>
                </mxCell>
                <mxCell id="184" value="" style="endArrow=none;html=1;entryX=0.527;entryY=0.027;entryDx=0;entryDy=0;entryPerimeter=0;exitX=0.03;exitY=0.489;exitDx=0;exitDy=0;exitPerimeter=0;" edge="1" parent="214">
                    <mxGeometry width="50" height="50" relative="1" as="geometry">
                        <mxPoint x="93" y="144.05999999999972" as="sourcePoint"/>
                        <mxPoint x="217.25" y="84" as="targetPoint"/>
                    </mxGeometry>
                </mxCell>
                <mxCell id="185" value="" style="endArrow=none;html=1;entryX=0.527;entryY=0.027;entryDx=0;entryDy=0;entryPerimeter=0;exitX=0.03;exitY=0.489;exitDx=0;exitDy=0;exitPerimeter=0;" edge="1" parent="214">
                    <mxGeometry width="50" height="50" relative="1" as="geometry">
                        <mxPoint x="62.88000000000011" y="129.05999999999972" as="sourcePoint"/>
                        <mxPoint x="187.1300000000001" y="69" as="targetPoint"/>
                    </mxGeometry>
                </mxCell>
                <mxCell id="186" value="" style="endArrow=none;html=1;strokeColor=default;entryX=0.52;entryY=0.902;entryDx=0;entryDy=0;entryPerimeter=0;" edge="1" parent="214">
                    <mxGeometry width="50" height="50" relative="1" as="geometry">
                        <mxPoint x="33" y="82.99999999999977" as="sourcePoint"/>
                        <mxPoint x="158" y="143.26000000000022" as="targetPoint"/>
                    </mxGeometry>
                </mxCell>
                <mxCell id="187" value="" style="endArrow=none;html=1;strokeColor=default;entryX=0.52;entryY=0.902;entryDx=0;entryDy=0;entryPerimeter=0;exitX=0.269;exitY=0.238;exitDx=0;exitDy=0;exitPerimeter=0;" edge="1" parent="214" source="182">
                    <mxGeometry width="50" height="50" relative="1" as="geometry">
                        <mxPoint x="-207" y="989" as="sourcePoint"/>
                        <mxPoint x="188" y="128.26000000000022" as="targetPoint"/>
                    </mxGeometry>
                </mxCell>
                <mxCell id="188" value="" style="endArrow=none;html=1;strokeColor=default;entryX=0.52;entryY=0.902;entryDx=0;entryDy=0;entryPerimeter=0;exitX=0.256;exitY=0.226;exitDx=0;exitDy=0;exitPerimeter=0;" edge="1" parent="214">
                    <mxGeometry width="50" height="50" relative="1" as="geometry">
                        <mxPoint x="96" y="52.99999999999977" as="sourcePoint"/>
                        <mxPoint x="220" y="112.88000000000011" as="targetPoint"/>
                    </mxGeometry>
                </mxCell>
                <mxCell id="189" value="" style="html=1;whiteSpace=wrap;shape=isoCube2;backgroundOutline=1;isoAngle=15;" vertex="1" parent="214">
                    <mxGeometry y="30" width="250" height="120" as="geometry"/>
                </mxCell>
                <mxCell id="190" value="" style="endArrow=none;html=1;entryX=0.527;entryY=0.027;entryDx=0;entryDy=0;entryPerimeter=0;exitX=0.03;exitY=0.489;exitDx=0;exitDy=0;exitPerimeter=0;" edge="1" parent="214">
                    <mxGeometry width="50" height="50" relative="1" as="geometry">
                        <mxPoint x="31" y="104.05999999999972" as="sourcePoint"/>
                        <mxPoint x="155.25" y="44" as="targetPoint"/>
                    </mxGeometry>
                </mxCell>
                <mxCell id="191" value="" style="endArrow=none;html=1;entryX=0.527;entryY=0.027;entryDx=0;entryDy=0;entryPerimeter=0;exitX=0.03;exitY=0.489;exitDx=0;exitDy=0;exitPerimeter=0;" edge="1" parent="214">
                    <mxGeometry width="50" height="50" relative="1" as="geometry">
                        <mxPoint x="93" y="135.05999999999995" as="sourcePoint"/>
                        <mxPoint x="217.25" y="75" as="targetPoint"/>
                    </mxGeometry>
                </mxCell>
                <mxCell id="192" value="" style="endArrow=none;html=1;entryX=0.527;entryY=0.027;entryDx=0;entryDy=0;entryPerimeter=0;exitX=0.03;exitY=0.489;exitDx=0;exitDy=0;exitPerimeter=0;" edge="1" parent="214">
                    <mxGeometry width="50" height="50" relative="1" as="geometry">
                        <mxPoint x="62.88000000000011" y="120.05999999999995" as="sourcePoint"/>
                        <mxPoint x="187.1300000000001" y="60" as="targetPoint"/>
                    </mxGeometry>
                </mxCell>
                <mxCell id="193" value="" style="endArrow=none;html=1;strokeColor=default;entryX=0.52;entryY=0.902;entryDx=0;entryDy=0;entryPerimeter=0;" edge="1" parent="214">
                    <mxGeometry width="50" height="50" relative="1" as="geometry">
                        <mxPoint x="33" y="74" as="sourcePoint"/>
                        <mxPoint x="158" y="134.26000000000022" as="targetPoint"/>
                    </mxGeometry>
                </mxCell>
                <mxCell id="194" value="" style="endArrow=none;html=1;strokeColor=default;entryX=0.52;entryY=0.902;entryDx=0;entryDy=0;entryPerimeter=0;exitX=0.269;exitY=0.238;exitDx=0;exitDy=0;exitPerimeter=0;" edge="1" parent="214" source="189">
                    <mxGeometry width="50" height="50" relative="1" as="geometry">
                        <mxPoint x="-777" y="1999" as="sourcePoint"/>
                        <mxPoint x="188" y="119.26000000000022" as="targetPoint"/>
                    </mxGeometry>
                </mxCell>
                <mxCell id="195" value="" style="endArrow=none;html=1;strokeColor=default;entryX=0.52;entryY=0.902;entryDx=0;entryDy=0;entryPerimeter=0;exitX=0.256;exitY=0.226;exitDx=0;exitDy=0;exitPerimeter=0;" edge="1" parent="214">
                    <mxGeometry width="50" height="50" relative="1" as="geometry">
                        <mxPoint x="96" y="44" as="sourcePoint"/>
                        <mxPoint x="220" y="103.88000000000011" as="targetPoint"/>
                    </mxGeometry>
                </mxCell>
                <mxCell id="196" value="" style="html=1;whiteSpace=wrap;shape=isoCube2;backgroundOutline=1;isoAngle=15;" vertex="1" parent="214">
                    <mxGeometry y="19" width="250" height="120" as="geometry"/>
                </mxCell>
                <mxCell id="197" value="" style="endArrow=none;html=1;entryX=0.527;entryY=0.027;entryDx=0;entryDy=0;entryPerimeter=0;exitX=0.03;exitY=0.489;exitDx=0;exitDy=0;exitPerimeter=0;" edge="1" parent="214">
                    <mxGeometry width="50" height="50" relative="1" as="geometry">
                        <mxPoint x="31" y="93.06000000000017" as="sourcePoint"/>
                        <mxPoint x="155.25" y="32.99999999999977" as="targetPoint"/>
                    </mxGeometry>
                </mxCell>
                <mxCell id="198" value="" style="endArrow=none;html=1;entryX=0.527;entryY=0.027;entryDx=0;entryDy=0;entryPerimeter=0;exitX=0.03;exitY=0.489;exitDx=0;exitDy=0;exitPerimeter=0;" edge="1" parent="214">
                    <mxGeometry width="50" height="50" relative="1" as="geometry">
                        <mxPoint x="93" y="124.05999999999972" as="sourcePoint"/>
                        <mxPoint x="217.25" y="64" as="targetPoint"/>
                    </mxGeometry>
                </mxCell>
                <mxCell id="199" value="" style="endArrow=none;html=1;entryX=0.527;entryY=0.027;entryDx=0;entryDy=0;entryPerimeter=0;exitX=0.03;exitY=0.489;exitDx=0;exitDy=0;exitPerimeter=0;" edge="1" parent="214">
                    <mxGeometry width="50" height="50" relative="1" as="geometry">
                        <mxPoint x="62.88000000000011" y="109.05999999999972" as="sourcePoint"/>
                        <mxPoint x="187.1300000000001" y="49" as="targetPoint"/>
                    </mxGeometry>
                </mxCell>
                <mxCell id="200" value="" style="endArrow=none;html=1;strokeColor=default;entryX=0.52;entryY=0.902;entryDx=0;entryDy=0;entryPerimeter=0;" edge="1" parent="214">
                    <mxGeometry width="50" height="50" relative="1" as="geometry">
                        <mxPoint x="33" y="62.99999999999977" as="sourcePoint"/>
                        <mxPoint x="158" y="123.26000000000022" as="targetPoint"/>
                    </mxGeometry>
                </mxCell>
                <mxCell id="201" value="" style="endArrow=none;html=1;strokeColor=default;entryX=0.52;entryY=0.902;entryDx=0;entryDy=0;entryPerimeter=0;exitX=0.269;exitY=0.238;exitDx=0;exitDy=0;exitPerimeter=0;" edge="1" parent="214" source="196">
                    <mxGeometry width="50" height="50" relative="1" as="geometry">
                        <mxPoint x="-777" y="1999" as="sourcePoint"/>
                        <mxPoint x="188" y="108.26000000000022" as="targetPoint"/>
                    </mxGeometry>
                </mxCell>
                <mxCell id="202" value="" style="endArrow=none;html=1;strokeColor=default;entryX=0.52;entryY=0.902;entryDx=0;entryDy=0;entryPerimeter=0;exitX=0.256;exitY=0.226;exitDx=0;exitDy=0;exitPerimeter=0;" edge="1" parent="214">
                    <mxGeometry width="50" height="50" relative="1" as="geometry">
                        <mxPoint x="96" y="32.99999999999977" as="sourcePoint"/>
                        <mxPoint x="220" y="92.88000000000011" as="targetPoint"/>
                    </mxGeometry>
                </mxCell>
                <mxCell id="203" value="" style="html=1;whiteSpace=wrap;shape=isoCube2;backgroundOutline=1;isoAngle=15;" vertex="1" parent="214">
                    <mxGeometry width="250" height="130" as="geometry"/>
                </mxCell>
                <mxCell id="204" value="" style="endArrow=none;html=1;entryX=0.527;entryY=0.027;entryDx=0;entryDy=0;entryPerimeter=0;exitX=0.03;exitY=0.489;exitDx=0;exitDy=0;exitPerimeter=0;" edge="1" parent="214">
                    <mxGeometry width="50" height="50" relative="1" as="geometry">
                        <mxPoint x="31" y="74.05999999999972" as="sourcePoint"/>
                        <mxPoint x="155.25" y="14" as="targetPoint"/>
                    </mxGeometry>
                </mxCell>
                <mxCell id="205" value="" style="endArrow=none;html=1;entryX=0.527;entryY=0.027;entryDx=0;entryDy=0;entryPerimeter=0;exitX=0.03;exitY=0.489;exitDx=0;exitDy=0;exitPerimeter=0;" edge="1" parent="214">
                    <mxGeometry width="50" height="50" relative="1" as="geometry">
                        <mxPoint x="93" y="105.05999999999995" as="sourcePoint"/>
                        <mxPoint x="217.25" y="45" as="targetPoint"/>
                    </mxGeometry>
                </mxCell>
                <mxCell id="206" value="" style="endArrow=none;html=1;entryX=0.527;entryY=0.027;entryDx=0;entryDy=0;entryPerimeter=0;exitX=0.03;exitY=0.489;exitDx=0;exitDy=0;exitPerimeter=0;" edge="1" parent="214">
                    <mxGeometry width="50" height="50" relative="1" as="geometry">
                        <mxPoint x="62.88000000000011" y="90.05999999999995" as="sourcePoint"/>
                        <mxPoint x="187.1300000000001" y="30" as="targetPoint"/>
                    </mxGeometry>
                </mxCell>
                <mxCell id="207" value="" style="endArrow=none;html=1;strokeColor=default;entryX=0.52;entryY=0.902;entryDx=0;entryDy=0;entryPerimeter=0;" edge="1" parent="214">
                    <mxGeometry width="50" height="50" relative="1" as="geometry">
                        <mxPoint x="33" y="44" as="sourcePoint"/>
                        <mxPoint x="158" y="104.25999999999999" as="targetPoint"/>
                    </mxGeometry>
                </mxCell>
                <mxCell id="208" value="" style="endArrow=none;html=1;strokeColor=default;entryX=0.52;entryY=0.902;entryDx=0;entryDy=0;entryPerimeter=0;exitX=0.256;exitY=0.226;exitDx=0;exitDy=0;exitPerimeter=0;" edge="1" parent="214" source="203">
                    <mxGeometry width="50" height="50" relative="1" as="geometry">
                        <mxPoint x="63" y="29" as="sourcePoint"/>
                        <mxPoint x="188" y="89.25999999999999" as="targetPoint"/>
                    </mxGeometry>
                </mxCell>
                <mxCell id="209" value="" style="endArrow=none;html=1;strokeColor=default;entryX=0.52;entryY=0.902;entryDx=0;entryDy=0;entryPerimeter=0;exitX=0.256;exitY=0.226;exitDx=0;exitDy=0;exitPerimeter=0;" edge="1" parent="214">
                    <mxGeometry width="50" height="50" relative="1" as="geometry">
                        <mxPoint x="96" y="14" as="sourcePoint"/>
                        <mxPoint x="220" y="73.88000000000011" as="targetPoint"/>
                    </mxGeometry>
                </mxCell>
                <mxCell id="210" value="" style="shape=waypoint;sketch=0;fillStyle=solid;size=6;pointerEvents=1;points=[];fillColor=none;resizable=0;rotatable=0;perimeter=centerPerimeter;snapToPoint=1;" vertex="1" parent="214">
                    <mxGeometry x="20" y="44" width="20" height="20" as="geometry"/>
                </mxCell>
                <mxCell id="211" value="" style="shape=waypoint;sketch=0;fillStyle=solid;size=6;pointerEvents=1;points=[];fillColor=none;resizable=0;rotatable=0;perimeter=centerPerimeter;snapToPoint=1;" vertex="1" parent="214">
                    <mxGeometry x="117" y="30" width="20" height="20" as="geometry"/>
                </mxCell>
                <mxCell id="212" value="" style="shape=waypoint;sketch=0;fillStyle=solid;size=6;pointerEvents=1;points=[];fillColor=none;resizable=0;rotatable=0;perimeter=centerPerimeter;snapToPoint=1;" vertex="1" parent="214">
                    <mxGeometry x="148" y="45" width="20" height="20" as="geometry"/>
                </mxCell>
                <mxCell id="213" value="" style="shape=waypoint;sketch=0;fillStyle=solid;size=6;pointerEvents=1;points=[];fillColor=none;resizable=0;rotatable=0;perimeter=centerPerimeter;snapToPoint=1;" vertex="1" parent="214">
                    <mxGeometry x="115" y="91" width="20" height="20" as="geometry"/>
                </mxCell>
                <mxCell id="223" value="" style="shape=curlyBracket;whiteSpace=wrap;html=1;rounded=1;flipH=1;labelPosition=right;verticalLabelPosition=middle;align=left;verticalAlign=middle;rotation=-180;" vertex="1" parent="1">
                    <mxGeometry x="200" y="-680" width="20" height="60" as="geometry"/>
                </mxCell>
                <mxCell id="224" value="" style="endArrow=classic;html=1;" edge="1" parent="1">
                    <mxGeometry width="50" height="50" relative="1" as="geometry">
                        <mxPoint x="200" y="-695" as="sourcePoint"/>
                        <mxPoint x="223" y="-695" as="targetPoint"/>
                    </mxGeometry>
                </mxCell>
                <mxCell id="225" value="Sitios de Muestreo" style="text;html=1;strokeColor=none;fillColor=none;align=center;verticalAlign=middle;whiteSpace=wrap;rounded=0;" vertex="1" parent="1">
                    <mxGeometry x="141" y="-720" width="60" height="30" as="geometry"/>
                </mxCell>
                <mxCell id="226" value="Covariables" style="text;html=1;strokeColor=none;fillColor=none;align=center;verticalAlign=middle;whiteSpace=wrap;rounded=0;" vertex="1" parent="1">
                    <mxGeometry x="135" y="-665" width="60" height="30" as="geometry"/>
                </mxCell>
                <mxCell id="233" style="edgeStyle=none;html=1;entryX=0.5;entryY=0;entryDx=0;entryDy=0;" edge="1" parent="1" source="227" target="230">
                    <mxGeometry relative="1" as="geometry"/>
                </mxCell>
                <mxCell id="234" style="edgeStyle=none;html=1;entryX=0.5;entryY=0;entryDx=0;entryDy=0;" edge="1" parent="1" source="227" target="229">
                    <mxGeometry relative="1" as="geometry"/>
                </mxCell>
                <mxCell id="227" value="DivisiÃ³n de datos" style="shape=parallelogram;perimeter=parallelogramPerimeter;whiteSpace=wrap;html=1;fixedSize=1;" vertex="1" parent="1">
                    <mxGeometry x="241" y="-500" width="160" height="50" as="geometry"/>
                </mxCell>
                <mxCell id="237" style="edgeStyle=none;html=1;entryX=0.5;entryY=0;entryDx=0;entryDy=0;" edge="1" parent="1" source="229" target="236">
                    <mxGeometry relative="1" as="geometry"/>
                </mxCell>
                <mxCell id="229" value="Entrenamiento&lt;br&gt;(70%)" style="rounded=0;whiteSpace=wrap;html=1;" vertex="1" parent="1">
                    <mxGeometry x="161" y="-420" width="120" height="40" as="geometry"/>
                </mxCell>
                <mxCell id="241" style="edgeStyle=none;rounded=0;html=1;entryX=0.5;entryY=0;entryDx=0;entryDy=0;" edge="1" parent="1" source="230" target="238">
                    <mxGeometry relative="1" as="geometry"/>
                </mxCell>
                <mxCell id="230" value="ValidaciÃ³n&lt;br&gt;(30%)" style="rounded=0;whiteSpace=wrap;html=1;" vertex="1" parent="1">
                    <mxGeometry x="371" y="-420" width="120" height="40" as="geometry"/>
                </mxCell>
                <mxCell id="240" style="edgeStyle=none;html=1;entryX=0;entryY=0.5;entryDx=0;entryDy=0;rounded=0;" edge="1" parent="1" source="236" target="238">
                    <mxGeometry relative="1" as="geometry">
                        <Array as="points">
                            <mxPoint x="221" y="-300"/>
                        </Array>
                    </mxGeometry>
                </mxCell>
                <mxCell id="236" value="QRF, SVM, Xgbost,&lt;br&gt;" style="shape=parallelogram;perimeter=parallelogramPerimeter;whiteSpace=wrap;html=1;fixedSize=1;" vertex="1" parent="1">
                    <mxGeometry x="141" y="-360" width="160" height="40" as="geometry"/>
                </mxCell>
                <mxCell id="369" style="edgeStyle=none;rounded=0;html=1;entryX=0.5;entryY=0;entryDx=0;entryDy=0;fontFamily=Verdana;fontSize=18;" edge="1" parent="1" source="243" target="298">
                    <mxGeometry relative="1" as="geometry"/>
                </mxCell>
                <mxCell id="243" value="" style="rounded=1;whiteSpace=wrap;html=1;fillColor=none;dashed=1;strokeColor=#FFD45E;" vertex="1" parent="1">
                    <mxGeometry x="120" y="-210" width="420" height="320" as="geometry"/>
                </mxCell>
                <mxCell id="238" value="ValidaciÃ³n y SeleccÃ­on del Modelo" style="rounded=0;whiteSpace=wrap;html=1;" vertex="1" parent="1">
                    <mxGeometry x="371" y="-330" width="120" height="60" as="geometry"/>
                </mxCell>
                <mxCell id="245" style="edgeStyle=none;rounded=0;html=1;entryX=0.5;entryY=0;entryDx=0;entryDy=0;" edge="1" parent="1" source="244" target="ST9EL9cw2-seMEYedsz2-176">
                    <mxGeometry relative="1" as="geometry"/>
                </mxCell>
                <mxCell id="244" value="" style="rounded=1;whiteSpace=wrap;html=1;fillColor=none;dashed=1;strokeColor=#009900;" vertex="1" parent="1">
                    <mxGeometry x="120" y="-780" width="410" height="236.5" as="geometry"/>
                </mxCell>
                <mxCell id="251" style="edgeStyle=none;rounded=0;html=1;" edge="1" parent="1" source="248" target="250">
                    <mxGeometry relative="1" as="geometry"/>
                </mxCell>
                <mxCell id="248" value="Hyperparameter Tuning" style="shape=parallelogram;perimeter=parallelogramPerimeter;whiteSpace=wrap;html=1;fixedSize=1;" vertex="1" parent="1">
                    <mxGeometry x="245" y="-140" width="160" height="40" as="geometry"/>
                </mxCell>
                <mxCell id="254" style="edgeStyle=none;rounded=0;html=1;" edge="1" parent="1" source="250" target="253">
                    <mxGeometry relative="1" as="geometry"/>
                </mxCell>
                <mxCell id="250" value="Modelado" style="shape=parallelogram;perimeter=parallelogramPerimeter;whiteSpace=wrap;html=1;fixedSize=1;" vertex="1" parent="1">
                    <mxGeometry x="280" y="-80" width="90" height="40" as="geometry"/>
                </mxCell>
                <mxCell id="288" style="edgeStyle=none;rounded=0;html=1;entryX=0.5;entryY=0;entryDx=0;entryDy=0;" edge="1" parent="1" source="253" target="256">
                    <mxGeometry relative="1" as="geometry"/>
                </mxCell>
                <mxCell id="253" value="Predicciones" style="shape=parallelogram;perimeter=parallelogramPerimeter;whiteSpace=wrap;html=1;fixedSize=1;" vertex="1" parent="1">
                    <mxGeometry x="273" y="-20" width="104" height="40" as="geometry"/>
                </mxCell>
                <mxCell id="256" value="&lt;ul&gt;&lt;li&gt;&lt;span style=&quot;background-color: initial;&quot;&gt;Reservas de Carbono&lt;/span&gt;&lt;/li&gt;&lt;li&gt;&lt;span style=&quot;background-color: initial;&quot;&gt;Incertidumbre&lt;/span&gt;&lt;/li&gt;&lt;/ul&gt;" style="rounded=0;whiteSpace=wrap;html=1;align=left;imageAspect=1;spacingTop=0;spacingLeft=-17;" vertex="1" parent="1">
                    <mxGeometry x="249" y="40" width="152" height="60" as="geometry"/>
                </mxCell>
                <mxCell id="287" style="edgeStyle=none;rounded=0;html=1;exitX=0.5;exitY=1;exitDx=0;exitDy=0;entryX=0.5;entryY=0;entryDx=0;entryDy=0;" edge="1" parent="1" source="286" target="248">
                    <mxGeometry relative="1" as="geometry"/>
                </mxCell>
                <mxCell id="286" value="RFS" style="shape=parallelogram;perimeter=parallelogramPerimeter;whiteSpace=wrap;html=1;fixedSize=1;" vertex="1" parent="1">
                    <mxGeometry x="285" y="-200" width="80" height="40" as="geometry"/>
                </mxCell>
                <mxCell id="298" value="" style="rounded=1;whiteSpace=wrap;html=1;fillColor=none;dashed=1;strokeColor=#C773FF;" vertex="1" parent="1">
                    <mxGeometry x="120" y="130" width="420" height="160" as="geometry"/>
                </mxCell>
                <mxCell id="302" value="" style="shape=table;startSize=0;container=1;collapsible=0;childLayout=tableLayout;" vertex="1" parent="1">
                    <mxGeometry x="147" y="155" width="140" height="10" as="geometry"/>
                </mxCell>
                <mxCell id="303" value="" style="shape=tableRow;horizontal=0;startSize=0;swimlaneHead=0;swimlaneBody=0;top=0;left=0;bottom=0;right=0;collapsible=0;dropTarget=0;fillColor=none;points=[[0,0.5],[1,0.5]];portConstraint=eastwest;" vertex="1" parent="302">
                    <mxGeometry width="140" height="10" as="geometry"/>
                </mxCell>
                <mxCell id="304" value="" style="shape=partialRectangle;html=1;whiteSpace=wrap;connectable=0;overflow=hidden;fillColor=#1ba1e2;top=0;left=0;bottom=0;right=0;pointerEvents=1;fontColor=#ffffff;strokeColor=#006EAF;" vertex="1" parent="303">
                    <mxGeometry width="14" height="10" as="geometry">
                        <mxRectangle width="14" height="10" as="alternateBounds"/>
                    </mxGeometry>
                </mxCell>
                <mxCell id="305" value="" style="shape=partialRectangle;html=1;whiteSpace=wrap;connectable=0;overflow=hidden;fillColor=none;top=0;left=0;bottom=0;right=0;pointerEvents=1;" vertex="1" parent="303">
                    <mxGeometry x="14" width="14" height="10" as="geometry">
                        <mxRectangle width="14" height="10" as="alternateBounds"/>
                    </mxGeometry>
                </mxCell>
                <mxCell id="306" value="" style="shape=partialRectangle;html=1;whiteSpace=wrap;connectable=0;overflow=hidden;fillColor=none;top=0;left=0;bottom=0;right=0;pointerEvents=1;" vertex="1" parent="303">
                    <mxGeometry x="28" width="14" height="10" as="geometry">
                        <mxRectangle width="14" height="10" as="alternateBounds"/>
                    </mxGeometry>
                </mxCell>
                <mxCell id="307" value="" style="shape=partialRectangle;html=1;whiteSpace=wrap;connectable=0;overflow=hidden;fillColor=none;top=0;left=0;bottom=0;right=0;pointerEvents=1;" vertex="1" parent="303">
                    <mxGeometry x="42" width="14" height="10" as="geometry">
                        <mxRectangle width="14" height="10" as="alternateBounds"/>
                    </mxGeometry>
                </mxCell>
                <mxCell id="308" value="" style="shape=partialRectangle;html=1;whiteSpace=wrap;connectable=0;overflow=hidden;fillColor=none;top=0;left=0;bottom=0;right=0;pointerEvents=1;" vertex="1" parent="303">
                    <mxGeometry x="56" width="14" height="10" as="geometry">
                        <mxRectangle width="14" height="10" as="alternateBounds"/>
                    </mxGeometry>
                </mxCell>
                <mxCell id="309" value="" style="shape=partialRectangle;html=1;whiteSpace=wrap;connectable=0;overflow=hidden;fillColor=none;top=0;left=0;bottom=0;right=0;pointerEvents=1;" vertex="1" parent="303">
                    <mxGeometry x="70" width="14" height="10" as="geometry">
                        <mxRectangle width="14" height="10" as="alternateBounds"/>
                    </mxGeometry>
                </mxCell>
                <mxCell id="310" value="" style="shape=partialRectangle;html=1;whiteSpace=wrap;connectable=0;overflow=hidden;fillColor=none;top=0;left=0;bottom=0;right=0;pointerEvents=1;" vertex="1" parent="303">
                    <mxGeometry x="84" width="14" height="10" as="geometry">
                        <mxRectangle width="14" height="10" as="alternateBounds"/>
                    </mxGeometry>
                </mxCell>
                <mxCell id="311" value="" style="shape=partialRectangle;html=1;whiteSpace=wrap;connectable=0;overflow=hidden;fillColor=none;top=0;left=0;bottom=0;right=0;pointerEvents=1;" vertex="1" parent="303">
                    <mxGeometry x="98" width="14" height="10" as="geometry">
                        <mxRectangle width="14" height="10" as="alternateBounds"/>
                    </mxGeometry>
                </mxCell>
                <mxCell id="312" value="" style="shape=partialRectangle;html=1;whiteSpace=wrap;connectable=0;overflow=hidden;fillColor=none;top=0;left=0;bottom=0;right=0;pointerEvents=1;" vertex="1" parent="303">
                    <mxGeometry x="112" width="14" height="10" as="geometry">
                        <mxRectangle width="14" height="10" as="alternateBounds"/>
                    </mxGeometry>
                </mxCell>
                <mxCell id="313" value="" style="shape=partialRectangle;html=1;whiteSpace=wrap;connectable=0;overflow=hidden;fillColor=none;top=0;left=0;bottom=0;right=0;pointerEvents=1;" vertex="1" parent="303">
                    <mxGeometry x="126" width="14" height="10" as="geometry">
                        <mxRectangle width="14" height="10" as="alternateBounds"/>
                    </mxGeometry>
                </mxCell>
                <mxCell id="315" value="" style="shape=table;startSize=0;container=1;collapsible=0;childLayout=tableLayout;" vertex="1" parent="1">
                    <mxGeometry x="148" y="191" width="140" height="10" as="geometry"/>
                </mxCell>
                <mxCell id="316" value="" style="shape=tableRow;horizontal=0;startSize=0;swimlaneHead=0;swimlaneBody=0;top=0;left=0;bottom=0;right=0;collapsible=0;dropTarget=0;fillColor=none;points=[[0,0.5],[1,0.5]];portConstraint=eastwest;" vertex="1" parent="315">
                    <mxGeometry width="140" height="10" as="geometry"/>
                </mxCell>
                <mxCell id="317" value="" style="shape=partialRectangle;html=1;whiteSpace=wrap;connectable=0;overflow=hidden;fillColor=none;top=0;left=0;bottom=0;right=0;pointerEvents=1;" vertex="1" parent="316">
                    <mxGeometry width="14" height="10" as="geometry">
                        <mxRectangle width="14" height="10" as="alternateBounds"/>
                    </mxGeometry>
                </mxCell>
                <mxCell id="318" value="" style="shape=partialRectangle;html=1;whiteSpace=wrap;connectable=0;overflow=hidden;fillColor=#1ba1e2;top=0;left=0;bottom=0;right=0;pointerEvents=1;fontColor=#ffffff;strokeColor=#006EAF;" vertex="1" parent="316">
                    <mxGeometry x="14" width="14" height="10" as="geometry">
                        <mxRectangle width="14" height="10" as="alternateBounds"/>
                    </mxGeometry>
                </mxCell>
                <mxCell id="319" value="" style="shape=partialRectangle;html=1;whiteSpace=wrap;connectable=0;overflow=hidden;fillColor=none;top=0;left=0;bottom=0;right=0;pointerEvents=1;" vertex="1" parent="316">
                    <mxGeometry x="28" width="14" height="10" as="geometry">
                        <mxRectangle width="14" height="10" as="alternateBounds"/>
                    </mxGeometry>
                </mxCell>
                <mxCell id="320" value="" style="shape=partialRectangle;html=1;whiteSpace=wrap;connectable=0;overflow=hidden;fillColor=none;top=0;left=0;bottom=0;right=0;pointerEvents=1;" vertex="1" parent="316">
                    <mxGeometry x="42" width="14" height="10" as="geometry">
                        <mxRectangle width="14" height="10" as="alternateBounds"/>
                    </mxGeometry>
                </mxCell>
                <mxCell id="321" value="" style="shape=partialRectangle;html=1;whiteSpace=wrap;connectable=0;overflow=hidden;fillColor=none;top=0;left=0;bottom=0;right=0;pointerEvents=1;" vertex="1" parent="316">
                    <mxGeometry x="56" width="14" height="10" as="geometry">
                        <mxRectangle width="14" height="10" as="alternateBounds"/>
                    </mxGeometry>
                </mxCell>
                <mxCell id="322" value="" style="shape=partialRectangle;html=1;whiteSpace=wrap;connectable=0;overflow=hidden;fillColor=none;top=0;left=0;bottom=0;right=0;pointerEvents=1;" vertex="1" parent="316">
                    <mxGeometry x="70" width="14" height="10" as="geometry">
                        <mxRectangle width="14" height="10" as="alternateBounds"/>
                    </mxGeometry>
                </mxCell>
                <mxCell id="323" value="" style="shape=partialRectangle;html=1;whiteSpace=wrap;connectable=0;overflow=hidden;fillColor=none;top=0;left=0;bottom=0;right=0;pointerEvents=1;" vertex="1" parent="316">
                    <mxGeometry x="84" width="14" height="10" as="geometry">
                        <mxRectangle width="14" height="10" as="alternateBounds"/>
                    </mxGeometry>
                </mxCell>
                <mxCell id="324" value="" style="shape=partialRectangle;html=1;whiteSpace=wrap;connectable=0;overflow=hidden;fillColor=none;top=0;left=0;bottom=0;right=0;pointerEvents=1;" vertex="1" parent="316">
                    <mxGeometry x="98" width="14" height="10" as="geometry">
                        <mxRectangle width="14" height="10" as="alternateBounds"/>
                    </mxGeometry>
                </mxCell>
                <mxCell id="325" value="" style="shape=partialRectangle;html=1;whiteSpace=wrap;connectable=0;overflow=hidden;fillColor=none;top=0;left=0;bottom=0;right=0;pointerEvents=1;" vertex="1" parent="316">
                    <mxGeometry x="112" width="14" height="10" as="geometry">
                        <mxRectangle width="14" height="10" as="alternateBounds"/>
                    </mxGeometry>
                </mxCell>
                <mxCell id="326" value="" style="shape=partialRectangle;html=1;whiteSpace=wrap;connectable=0;overflow=hidden;fillColor=none;top=0;left=0;bottom=0;right=0;pointerEvents=1;" vertex="1" parent="316">
                    <mxGeometry x="126" width="14" height="10" as="geometry">
                        <mxRectangle width="14" height="10" as="alternateBounds"/>
                    </mxGeometry>
                </mxCell>
                <mxCell id="339" value="" style="shape=table;startSize=0;container=1;collapsible=0;childLayout=tableLayout;" vertex="1" parent="1">
                    <mxGeometry x="148" y="255" width="140" height="10" as="geometry"/>
                </mxCell>
                <mxCell id="340" value="" style="shape=tableRow;horizontal=0;startSize=0;swimlaneHead=0;swimlaneBody=0;top=0;left=0;bottom=0;right=0;collapsible=0;dropTarget=0;fillColor=none;points=[[0,0.5],[1,0.5]];portConstraint=eastwest;" vertex="1" parent="339">
                    <mxGeometry width="140" height="10" as="geometry"/>
                </mxCell>
                <mxCell id="341" value="" style="shape=partialRectangle;html=1;whiteSpace=wrap;connectable=0;overflow=hidden;fillColor=none;top=0;left=0;bottom=0;right=0;pointerEvents=1;" vertex="1" parent="340">
                    <mxGeometry width="14" height="10" as="geometry">
                        <mxRectangle width="14" height="10" as="alternateBounds"/>
                    </mxGeometry>
                </mxCell>
                <mxCell id="342" value="" style="shape=partialRectangle;html=1;whiteSpace=wrap;connectable=0;overflow=hidden;fillColor=none;top=0;left=0;bottom=0;right=0;pointerEvents=1;fontColor=#ffffff;strokeColor=#006EAF;" vertex="1" parent="340">
                    <mxGeometry x="14" width="14" height="10" as="geometry">
                        <mxRectangle width="14" height="10" as="alternateBounds"/>
                    </mxGeometry>
                </mxCell>
                <mxCell id="343" value="" style="shape=partialRectangle;html=1;whiteSpace=wrap;connectable=0;overflow=hidden;fillColor=none;top=0;left=0;bottom=0;right=0;pointerEvents=1;" vertex="1" parent="340">
                    <mxGeometry x="28" width="14" height="10" as="geometry">
                        <mxRectangle width="14" height="10" as="alternateBounds"/>
                    </mxGeometry>
                </mxCell>
                <mxCell id="344" value="" style="shape=partialRectangle;html=1;whiteSpace=wrap;connectable=0;overflow=hidden;fillColor=none;top=0;left=0;bottom=0;right=0;pointerEvents=1;" vertex="1" parent="340">
                    <mxGeometry x="42" width="14" height="10" as="geometry">
                        <mxRectangle width="14" height="10" as="alternateBounds"/>
                    </mxGeometry>
                </mxCell>
                <mxCell id="345" value="" style="shape=partialRectangle;html=1;whiteSpace=wrap;connectable=0;overflow=hidden;fillColor=none;top=0;left=0;bottom=0;right=0;pointerEvents=1;" vertex="1" parent="340">
                    <mxGeometry x="56" width="14" height="10" as="geometry">
                        <mxRectangle width="14" height="10" as="alternateBounds"/>
                    </mxGeometry>
                </mxCell>
                <mxCell id="346" value="" style="shape=partialRectangle;html=1;whiteSpace=wrap;connectable=0;overflow=hidden;fillColor=none;top=0;left=0;bottom=0;right=0;pointerEvents=1;" vertex="1" parent="340">
                    <mxGeometry x="70" width="14" height="10" as="geometry">
                        <mxRectangle width="14" height="10" as="alternateBounds"/>
                    </mxGeometry>
                </mxCell>
                <mxCell id="347" value="" style="shape=partialRectangle;html=1;whiteSpace=wrap;connectable=0;overflow=hidden;fillColor=none;top=0;left=0;bottom=0;right=0;pointerEvents=1;" vertex="1" parent="340">
                    <mxGeometry x="84" width="14" height="10" as="geometry">
                        <mxRectangle width="14" height="10" as="alternateBounds"/>
                    </mxGeometry>
                </mxCell>
                <mxCell id="348" value="" style="shape=partialRectangle;html=1;whiteSpace=wrap;connectable=0;overflow=hidden;fillColor=none;top=0;left=0;bottom=0;right=0;pointerEvents=1;" vertex="1" parent="340">
                    <mxGeometry x="98" width="14" height="10" as="geometry">
                        <mxRectangle width="14" height="10" as="alternateBounds"/>
                    </mxGeometry>
                </mxCell>
                <mxCell id="349" value="" style="shape=partialRectangle;html=1;whiteSpace=wrap;connectable=0;overflow=hidden;fillColor=none;top=0;left=0;bottom=0;right=0;pointerEvents=1;" vertex="1" parent="340">
                    <mxGeometry x="112" width="14" height="10" as="geometry">
                        <mxRectangle width="14" height="10" as="alternateBounds"/>
                    </mxGeometry>
                </mxCell>
                <mxCell id="350" value="" style="shape=partialRectangle;html=1;whiteSpace=wrap;connectable=0;overflow=hidden;fillColor=#1ba1e2;top=0;left=0;bottom=0;right=0;pointerEvents=1;fontColor=#ffffff;strokeColor=#006EAF;" vertex="1" parent="340">
                    <mxGeometry x="126" width="14" height="10" as="geometry">
                        <mxRectangle width="14" height="10" as="alternateBounds"/>
                    </mxGeometry>
                </mxCell>
                <mxCell id="351" value="ValidaciÃ³n&lt;sub&gt;1&lt;/sub&gt;" style="shape=parallelogram;perimeter=parallelogramPerimeter;whiteSpace=wrap;html=1;fixedSize=1;" vertex="1" parent="1">
                    <mxGeometry x="426" y="151.25" width="100" height="17.5" as="geometry"/>
                </mxCell>
                <mxCell id="353" value="ValidaciÃ³n&lt;sub&gt;k&lt;/sub&gt;" style="shape=parallelogram;perimeter=parallelogramPerimeter;whiteSpace=wrap;html=1;fixedSize=1;" vertex="1" parent="1">
                    <mxGeometry x="425.5" y="250.75" width="99" height="18" as="geometry"/>
                </mxCell>
                <mxCell id="354" value="Modelado&lt;span style=&quot;font-size: 10px;&quot;&gt;&lt;sub&gt;2&lt;/sub&gt;&lt;/span&gt;" style="shape=parallelogram;perimeter=parallelogramPerimeter;whiteSpace=wrap;html=1;fixedSize=1;" vertex="1" parent="1">
                    <mxGeometry x="315" y="187.25" width="95" height="17.5" as="geometry"/>
                </mxCell>
                <mxCell id="355" value="ValidaciÃ³n&lt;sub&gt;2&lt;/sub&gt;" style="shape=parallelogram;perimeter=parallelogramPerimeter;whiteSpace=wrap;html=1;fixedSize=1;" vertex="1" parent="1">
                    <mxGeometry x="425.5" y="187.25" width="100.5" height="17.75" as="geometry"/>
                </mxCell>
                <mxCell id="358" value="&lt;font face=&quot;Verdana&quot; size=&quot;1&quot; style=&quot;&quot;&gt;&lt;b style=&quot;font-size: 18px;&quot;&gt;...&lt;/b&gt;&lt;/font&gt;" style="text;html=1;strokeColor=none;fillColor=none;align=center;verticalAlign=middle;whiteSpace=wrap;rounded=0;" vertex="1" parent="1">
                    <mxGeometry x="188" y="206" width="60" height="30" as="geometry"/>
                </mxCell>
                <mxCell id="359" value="&lt;font face=&quot;Verdana&quot; size=&quot;1&quot; style=&quot;&quot;&gt;&lt;b style=&quot;font-size: 18px;&quot;&gt;...&lt;/b&gt;&lt;/font&gt;" style="text;html=1;strokeColor=none;fillColor=none;align=center;verticalAlign=middle;whiteSpace=wrap;rounded=0;" vertex="1" parent="1">
                    <mxGeometry x="328.5" y="206" width="60" height="30" as="geometry"/>
                </mxCell>
                <mxCell id="362" value="&lt;font face=&quot;Verdana&quot; size=&quot;1&quot; style=&quot;&quot;&gt;&lt;b style=&quot;font-size: 18px;&quot;&gt;...&lt;/b&gt;&lt;/font&gt;" style="text;html=1;strokeColor=none;fillColor=none;align=center;verticalAlign=middle;whiteSpace=wrap;rounded=0;" vertex="1" parent="1">
                    <mxGeometry x="445.5" y="206" width="60" height="30" as="geometry"/>
                </mxCell>
                <mxCell id="372" value="" style="endArrow=classic;html=1;rounded=0;fontFamily=Verdana;fontSize=18;" edge="1" parent="1">
                    <mxGeometry width="50" height="50" relative="1" as="geometry">
                        <mxPoint x="290" y="160" as="sourcePoint"/>
                        <mxPoint x="310" y="160" as="targetPoint"/>
                    </mxGeometry>
                </mxCell>
                <mxCell id="373" value="" style="endArrow=classic;html=1;rounded=0;fontFamily=Verdana;fontSize=18;" edge="1" parent="1">
                    <mxGeometry width="50" height="50" relative="1" as="geometry">
                        <mxPoint x="290" y="195.86" as="sourcePoint"/>
                        <mxPoint x="310" y="195.86" as="targetPoint"/>
                    </mxGeometry>
                </mxCell>
                <mxCell id="374" value="Modelado&lt;span style=&quot;font-size: 8.33333px;&quot;&gt;&lt;sub&gt;1&lt;/sub&gt;&lt;/span&gt;" style="shape=parallelogram;perimeter=parallelogramPerimeter;whiteSpace=wrap;html=1;fixedSize=1;" vertex="1" parent="1">
                    <mxGeometry x="315" y="151.25" width="95" height="17.5" as="geometry"/>
                </mxCell>
                <mxCell id="375" value="Modelado&lt;span style=&quot;font-size: 8.33333px;&quot;&gt;&lt;sub&gt;k&lt;/sub&gt;&lt;/span&gt;" style="shape=parallelogram;perimeter=parallelogramPerimeter;whiteSpace=wrap;html=1;fixedSize=1;" vertex="1" parent="1">
                    <mxGeometry x="315" y="251.25" width="95" height="17.5" as="geometry"/>
                </mxCell>
                <mxCell id="376" value="Preprocesamiento" style="text;strokeColor=none;fillColor=none;html=1;fontSize=21;fontStyle=0;verticalAlign=middle;align=center;fontFamily=Verdana;rotation=-90;" vertex="1" parent="1">
                    <mxGeometry x="-80" y="-690" width="300" height="50" as="geometry"/>
                </mxCell>
                <mxCell id="377" value="Perfomance de &lt;br&gt;distintos modelos" style="text;strokeColor=none;fillColor=none;html=1;fontSize=21;fontStyle=0;verticalAlign=middle;align=center;fontFamily=Verdana;rotation=-90;" vertex="1" parent="1">
                    <mxGeometry x="-80" y="-435" width="300" height="100" as="geometry"/>
                </mxCell>
                <mxCell id="378" value="Modelado y PredicciÃ³n" style="text;strokeColor=none;fillColor=none;html=1;fontSize=21;fontStyle=0;verticalAlign=middle;align=center;fontFamily=Verdana;rotation=-90;" vertex="1" parent="1">
                    <mxGeometry x="-80" y="-110" width="300" height="100" as="geometry"/>
                </mxCell>
                <mxCell id="379" value="ValidaciÃ³n &lt;br&gt;Cruzada" style="text;strokeColor=none;fillColor=none;html=1;fontSize=21;fontStyle=0;verticalAlign=middle;align=center;fontFamily=Verdana;rotation=-90;" vertex="1" parent="1">
                    <mxGeometry x="-80" y="165" width="300" height="100" as="geometry"/>
                </mxCell>
                <mxCell id="380" value="ValidaciÃ³n &lt;br&gt;Cruzada" style="text;strokeColor=none;fillColor=none;html=1;fontSize=21;fontStyle=0;verticalAlign=middle;align=center;fontFamily=Verdana;rotation=-90;" vertex="1" parent="1">
                    <mxGeometry x="-80" y="165" width="300" height="100" as="geometry"/>
                </mxCell>
                <mxCell id="381" value="Modelado y PredicciÃ³n" style="text;strokeColor=none;fillColor=none;html=1;fontSize=21;fontStyle=0;verticalAlign=middle;align=center;fontFamily=Verdana;rotation=-90;" vertex="1" parent="1">
                    <mxGeometry x="-80" y="-110" width="300" height="100" as="geometry"/>
                </mxCell>
            </root>
        </mxGraphModel>
    </diagram>
</mxfile>